<svg width="1440" height="136" viewBox="0 0 1440 136" fill="none" xmlns="http://www.w3.org/2000/svg">
<g clip-path="url(#clip0_61_2193)">
<rect width="1440" height="136" fill="#CC1D23"/>
<path d="M993.948 142.112C825.254 170.406 721.734 166.89 868.735 126.976C1004.78 94.4365 993.929 88.6269 836.197 109.547C673.016 127.55 662.17 121.74 803.658 92.1186C1009.2 23.9581 998.352 18.1484 771.12 74.6897C577.618 149.299 566.772 143.489 738.581 57.2608C950.756 -65.8446 939.91 -71.6542 706.043 39.832C488.193 159.898 480.457 155.754 676.614 24.0692C929.445 -168.319 790.873 -125.049 644.076 6.64029C388.325 197.464 374.369 189.989 608.427 -12.4546C655.208 -52.9165 442.897 0.947789 442.897 0.947789" stroke="#881014" stroke-width="4.60403"/>
<path d="M1579.01 260.758C1416.55 207.239 1326.58 155.919 1475.25 189.054C1610.79 223.61 1603.9 213.418 1454.57 158.478C1301.78 98.418 1294.89 88.2258 1433.89 127.901C1647.53 163.299 1640.64 153.107 1413.22 97.3249C1207.23 73.2394 1200.34 63.0472 1392.54 66.7485C1637.63 56.6128 1630.74 46.4208 1371.86 36.1721C1123.16 40.975 1118.24 33.7057 1353.16 8.51854C1666.49 -43.9962 1523.71 -70.2352 1332.48 -22.0578C1017.29 27.7129 1008.42 14.598 1309.82 -55.557C1370.06 -69.5787 1157.1 -120.781 1157.1 -120.781" stroke="#881014" stroke-width="4.60403"/>
<path d="M364.913 368.758C202.451 315.239 112.478 263.919 261.154 297.054C396.697 331.61 389.804 321.418 240.476 266.478C87.6853 206.418 80.7923 196.226 219.797 235.901C433.431 271.299 426.538 261.107 199.118 205.325C-6.86517 181.239 -13.7581 171.047 178.44 174.748C423.532 164.613 416.64 154.421 157.761 144.172C-90.9382 148.975 -95.8544 141.706 139.059 116.519C452.394 64.0038 309.615 37.7648 118.38 85.9422C-196.81 135.713 -205.68 122.598 95.7251 52.443C155.966 38.4213 -57.0018 -12.7811 -57.0018 -12.7811" stroke="#881014" stroke-width="4.60403"/>
</g>
<defs>
<clipPath id="clip0_61_2193">
<rect width="1440" height="136" fill="white"/>
</clipPath>
</defs>
</svg>
