<svg width="109" height="21" viewBox="0 0 109 21" fill="none" xmlns="http://www.w3.org/2000/svg">
<path d="M0.263672 0.15625C1.75998 0.126541 3.43709 0.113377 4.95508 0.157227V0.158203C5.13493 0.165715 5.30712 0.191816 5.44336 0.28418C5.49757 0.321849 5.54076 0.35786 5.57812 0.394531L5.67773 0.508789C7.24898 2.5933 11.2099 7.95346 12.916 10.2461V10.2471C12.9733 10.3284 13.0336 10.4057 13.082 10.4902C13.1178 10.5527 13.1446 10.6147 13.1572 10.6768L13.165 10.7393V10.7441C13.1672 10.8202 13.1399 10.9015 13.0947 10.9873C13.0496 11.073 12.9907 11.1561 12.9336 11.2373C11.29 13.4968 7.7099 18.4792 6.1748 20.5566V20.5576C6.12187 20.6311 6.03993 20.7076 5.94531 20.7686C5.85048 20.8296 5.74714 20.8709 5.65137 20.8799L5.64648 20.8809C5.58045 20.8918 5.51413 20.8989 5.44727 20.9033L5.24316 20.9121C4.10571 20.9321 2.85683 20.9094 1.70215 20.9199C1.63045 20.9164 1.52416 20.9194 1.42969 20.917C1.32881 20.9144 1.23 20.9073 1.15039 20.8877C1.06777 20.8673 1.02684 20.8385 1.01172 20.8096C1.002 20.7906 0.994844 20.7546 1.01953 20.6904L1.05566 20.6172C1.81634 19.5328 3.01876 17.8847 4.25977 16.1797C5.19181 14.8992 6.1454 13.5865 6.9502 12.458L7.69922 11.3984C7.79803 11.2587 7.84294 11.1194 7.83398 10.9775C7.82512 10.8372 7.76407 10.7043 7.66992 10.5752V10.5742C6.13309 8.4831 3.64057 5.14868 1.76953 2.62793L0.164062 0.454102C0.127164 0.40027 0.102598 0.354382 0.0898438 0.316406C0.0770485 0.27824 0.0775649 0.25355 0.0820312 0.238281C0.0890019 0.215141 0.121314 0.172424 0.263672 0.15625Z" fill="white" stroke="white" stroke-width="0.158546"/>
<mask id="path-2-outside-1_61_2201" maskUnits="userSpaceOnUse" x="15.6678" y="14.3755" width="93" height="6" fill="black">
<rect fill="white" x="15.6678" y="14.3755" width="93" height="6"/>
<path d="M19.5935 15.466H20.1141L18.6541 18.884C18.3429 19.6196 17.6016 19.5234 17.2564 19.5234V19.0481C17.7317 19.0481 18.0486 19.0877 18.275 18.5558L18.3825 18.3011L16.6678 15.466H17.2281L18.6088 17.7692L19.5935 15.466Z"/>
<path d="M20.7926 15.466H21.3019V17.1524H23.5202V15.466H24.0295V19.4272H23.5202V17.622H21.3019V19.4272H20.7926V15.466Z"/>
<path d="M26.5328 19.5178C25.3897 19.5178 24.937 18.7482 24.937 17.7465V15.4717H25.435V17.6107C25.435 18.6746 25.8821 19.065 26.5724 19.065C27.6023 19.065 27.9702 18.1936 27.9758 17.3787L27.9928 15.466H28.4795V19.4272H28.0494L28.0154 18.5161H27.9985C27.9702 18.7651 27.6646 19.5178 26.5328 19.5178Z"/>
<path d="M29.4433 15.466H29.9526L31.107 15.4717C32.301 15.4773 32.4934 16.0602 32.4934 16.4507C32.4934 16.9826 32.0973 17.2655 31.7748 17.3448C32.2331 17.3731 32.6802 17.6899 32.6802 18.3407C32.6802 18.8953 32.352 19.4159 31.2824 19.4216L29.9526 19.4272H29.4433V15.466ZM29.9526 18.9858C30.4845 18.9802 31.1636 18.9802 31.322 18.9745C31.7295 18.9632 32.2105 18.8387 32.2105 18.3068C32.2105 17.8314 31.82 17.5145 31.2655 17.5145C30.7731 17.5145 30.1959 17.5202 29.9526 17.5145V18.9858ZM29.9526 17.1467C30.2186 17.141 30.8297 17.158 31.0504 17.158C31.7182 17.158 32.0294 16.8807 32.0294 16.5073C32.0294 16.0885 31.6333 15.9357 31.2655 15.9244C31.1183 15.9187 30.428 15.9187 29.9526 15.9131V17.1467Z"/>
<path d="M33.9131 17.5202C33.9414 18.4369 34.4846 19.065 35.3844 19.065C36.0012 19.065 36.6067 18.9802 36.8444 18.154H37.2971C37.0085 19.1499 36.1936 19.5178 35.3844 19.5178C34.23 19.5178 33.4151 18.7199 33.4151 17.4466C33.4151 16.1734 34.23 15.3755 35.3844 15.3755C36.618 15.3755 37.3423 16.1507 37.2971 17.5202H33.9131ZM33.9414 17.0675H36.7934C36.7255 16.3941 36.3294 15.8282 35.3844 15.8282C34.5921 15.8282 34.0715 16.3205 33.9414 17.0675Z"/>
<path d="M38.1438 15.466H38.6531L39.9433 15.4717C41.109 15.4773 41.307 16.3545 41.307 16.7053C41.307 17.1071 41.0467 17.9389 39.9433 17.9389H38.6531V19.4272H38.1438V15.466ZM38.6531 17.4919C38.953 17.4806 39.7169 17.4975 39.8584 17.4975C40.5657 17.4975 40.8091 17.1014 40.8091 16.7053C40.8091 16.3262 40.5884 15.9301 39.9433 15.9187C39.932 15.9187 39.185 15.9187 38.6531 15.9131V17.4919Z"/>
<path d="M45.0553 16.96C44.9478 16.1281 44.4159 15.8282 43.7312 15.8282C42.8484 15.8282 42.2599 16.3997 42.2599 17.4466C42.2599 18.5161 42.871 19.065 43.7198 19.065C44.5008 19.065 45.0497 18.7708 45.2081 18.0125H45.6778C45.4062 19.0198 44.7271 19.5178 43.7255 19.5178C42.4296 19.5178 41.7619 18.6916 41.7619 17.4579C41.7619 16.0602 42.622 15.3755 43.7085 15.3755C44.7045 15.3755 45.3892 15.9527 45.542 16.96H45.0553Z"/>
<path d="M48.0684 19.5178C46.9253 19.5178 46.4726 18.7482 46.4726 17.7465V15.4717H46.9706V17.6107C46.9706 18.6746 47.4177 19.065 48.108 19.065C49.1379 19.065 49.5058 18.1936 49.5114 17.3787L49.5284 15.466H50.0151V19.4272H49.585L49.551 18.5161H49.5341C49.5058 18.7651 49.2002 19.5178 48.0684 19.5178Z"/>
<path d="M55.9813 16.9543C55.9813 16.1904 55.6984 15.8678 55.0872 15.8678C54.3233 15.8678 54.046 16.3714 54.046 17.1184V19.4216H53.5367V17.2033C53.5367 16.2979 53.2934 15.8508 52.586 15.8508C51.4882 15.8508 51.4882 16.9373 51.4882 17.1467V19.4272H50.9789V15.466H51.4033L51.4882 16.2469C51.5391 15.964 51.9239 15.3755 52.7501 15.3755C53.3273 15.3755 53.7121 15.6697 53.8706 16.1338C54.029 15.8112 54.4478 15.3925 55.1891 15.3925C56.004 15.3925 56.4906 15.8961 56.4906 16.8524V19.4385H55.9813V16.9543Z"/>
<path d="M57.7807 17.5202C57.809 18.4369 58.3523 19.065 59.252 19.065C59.8688 19.065 60.4743 18.9802 60.712 18.154H61.1647C60.8761 19.1499 60.0612 19.5178 59.252 19.5178C58.0976 19.5178 57.2828 18.7199 57.2828 17.4466C57.2828 16.1734 58.0976 15.3755 59.252 15.3755C60.4857 15.3755 61.21 16.1507 61.1647 17.5202H57.7807ZM57.809 17.0675H60.6611C60.5932 16.3941 60.1971 15.8282 59.252 15.8282C58.4598 15.8282 57.9392 16.3205 57.809 17.0675Z"/>
<path d="M67.0138 16.9543C67.0138 16.1904 66.7309 15.8678 66.1197 15.8678C65.3558 15.8678 65.0785 16.3714 65.0785 17.1184V19.4216H64.5692V17.2033C64.5692 16.2979 64.3259 15.8508 63.6185 15.8508C62.5207 15.8508 62.5207 16.9373 62.5207 17.1467V19.4272H62.0114V15.466H62.4358L62.5207 16.2469C62.5716 15.964 62.9564 15.3755 63.7826 15.3755C64.3598 15.3755 64.7446 15.6697 64.9031 16.1338C65.0615 15.8112 65.4803 15.3925 66.2216 15.3925C67.0365 15.3925 67.5231 15.8961 67.5231 16.8524V19.4385H67.0138V16.9543Z"/>
<path d="M71.0711 19.4272L71.0145 18.6237V17.8654V17.8371L71.0202 18.6123L71.0145 18.6237C70.7542 19.1443 70.0073 19.5121 69.4187 19.5121C68.8132 19.5121 68.2021 19.1216 68.2021 18.403C68.2021 17.888 68.5643 17.4183 69.1528 17.2033C69.6734 17.0165 70.5166 16.9034 71.0089 16.9034L71.0145 17.2655H71.0089V16.8751C71.0089 16.6204 70.9919 15.8282 69.8884 15.8282C68.9321 15.8282 68.7793 16.4167 68.7001 16.7619H68.2078C68.27 16.3771 68.5869 15.3755 69.9111 15.3755C71.0202 15.3755 71.5182 16.0659 71.5182 16.9996V18.6237C71.5182 18.8783 71.5182 18.9858 71.8577 18.9858L72.1237 18.9915V19.4272H71.0711ZM68.7227 18.4143C68.7227 18.6916 68.8585 19.0254 69.4187 19.0254C70.1997 19.0254 70.9523 18.3916 71.0145 17.8654L71.0089 17.2655C70.7146 17.2825 69.7979 17.4636 69.2942 17.6503C68.8359 17.8201 68.7227 18.1653 68.7227 18.4143Z"/>
<path d="M74.0453 15.466H74.5546V17.5541L76.439 15.466H77.0501L75.5845 17.0788L77.3444 19.4272H76.7672L75.2619 17.441L74.5602 18.2106L74.5546 18.2049V19.4272H74.0453V15.466Z"/>
<path d="M79.5442 19.5178C78.3333 19.5178 77.575 18.7199 77.575 17.4466C77.575 16.1734 78.3333 15.3755 79.5442 15.3755C80.7552 15.3755 81.5135 16.1734 81.5135 17.4466C81.5135 18.7199 80.7552 19.5178 79.5442 19.5178ZM78.0729 17.4466C78.0729 18.4426 78.6388 19.065 79.5442 19.065C80.4497 19.065 81.0155 18.4426 81.0155 17.4466C81.0155 16.4507 80.4497 15.8282 79.5442 15.8282C78.6388 15.8282 78.0729 16.4507 78.0729 17.4466Z"/>
<path d="M85.5405 16.9543C85.433 16.1225 84.9052 15.8282 84.2205 15.8282C83.3377 15.8282 82.7492 16.3997 82.7492 17.4466C82.7492 18.5161 83.3604 19.065 84.2092 19.065C84.9901 19.065 85.539 18.7708 85.6975 18.0125H86.1672C85.8955 19.0198 85.2165 19.5178 84.2149 19.5178C82.919 19.5178 82.2512 18.6916 82.2512 17.4579C82.2512 16.0602 83.1114 15.3755 84.1979 15.3755C85.1938 15.3755 85.8785 15.9527 86.0313 16.96L85.5405 16.9543Z"/>
<path d="M87.0186 19.4272V15.466H87.5279V16.9543H88.8181C89.9216 16.9543 90.1819 17.7805 90.1819 18.1653C90.1819 18.5331 89.9838 19.4159 88.8181 19.4216L87.5279 19.4272H87.0186ZM87.5279 18.9802C88.0428 18.9745 88.8011 18.9745 88.8181 18.9745C89.4858 18.9632 89.7178 18.5671 89.7178 18.154C89.7178 17.7918 89.4292 17.3957 88.8181 17.3957C88.5408 17.3957 87.8165 17.4127 87.5279 17.4013V18.9802ZM90.6912 19.4272V15.466H91.2005V19.4272H90.6912Z"/>
<path d="M92.1646 15.466H95.0053V15.9357H92.6739V19.4272H92.1646V15.466Z"/>
<path d="M97.1643 19.5178C96.0212 19.5178 95.5685 18.7482 95.5685 17.7465V15.4717H96.0665V17.6107C96.0665 18.6746 96.5135 19.065 97.2039 19.065C98.2338 19.065 98.6016 18.1936 98.6073 17.3787L98.6243 15.466H99.1109V19.4272H98.6808L98.6469 18.5161H98.6299C98.6016 18.7651 98.296 19.5178 97.1643 19.5178Z"/>
<path d="M100.075 15.466H100.584V17.1524H102.802V15.466H103.312V19.4272H102.802V17.622H100.584V19.4272H100.075V15.466Z"/>
<path d="M106.918 19.4272L106.862 18.6237V17.8654V17.8371L106.868 18.6123L106.862 18.6237C106.602 19.1443 105.855 19.5121 105.266 19.5121C104.661 19.5121 104.049 19.1216 104.049 18.403C104.049 17.888 104.412 17.4183 105 17.2033C105.521 17.0165 106.364 16.9034 106.856 16.9034L106.862 17.2655H106.856V16.8751C106.856 16.6204 106.839 15.8282 105.736 15.8282C104.779 15.8282 104.627 16.4167 104.547 16.7619H104.055C104.117 16.3771 104.434 15.3755 105.758 15.3755C106.868 15.3755 107.366 16.0659 107.366 16.9996V18.6237C107.366 18.8783 107.366 18.9858 107.705 18.9858L107.971 18.9915V19.4272H106.918ZM104.57 18.4143C104.57 18.6916 104.706 19.0254 105.266 19.0254C106.047 19.0254 106.8 18.3916 106.862 17.8654L106.856 17.2655C106.562 17.2825 105.645 17.4636 105.142 17.6503C104.683 17.8201 104.57 18.1653 104.57 18.4143Z"/>
</mask>
<path d="M19.5935 15.466H20.1141L18.6541 18.884C18.3429 19.6196 17.6016 19.5234 17.2564 19.5234V19.0481C17.7317 19.0481 18.0486 19.0877 18.275 18.5558L18.3825 18.3011L16.6678 15.466H17.2281L18.6088 17.7692L19.5935 15.466Z" fill="white"/>
<path d="M20.7926 15.466H21.3019V17.1524H23.5202V15.466H24.0295V19.4272H23.5202V17.622H21.3019V19.4272H20.7926V15.466Z" fill="white"/>
<path d="M26.5328 19.5178C25.3897 19.5178 24.937 18.7482 24.937 17.7465V15.4717H25.435V17.6107C25.435 18.6746 25.8821 19.065 26.5724 19.065C27.6023 19.065 27.9702 18.1936 27.9758 17.3787L27.9928 15.466H28.4795V19.4272H28.0494L28.0154 18.5161H27.9985C27.9702 18.7651 27.6646 19.5178 26.5328 19.5178Z" fill="white"/>
<path d="M29.4433 15.466H29.9526L31.107 15.4717C32.301 15.4773 32.4934 16.0602 32.4934 16.4507C32.4934 16.9826 32.0973 17.2655 31.7748 17.3448C32.2331 17.3731 32.6802 17.6899 32.6802 18.3407C32.6802 18.8953 32.352 19.4159 31.2824 19.4216L29.9526 19.4272H29.4433V15.466ZM29.9526 18.9858C30.4845 18.9802 31.1636 18.9802 31.322 18.9745C31.7295 18.9632 32.2105 18.8387 32.2105 18.3068C32.2105 17.8314 31.82 17.5145 31.2655 17.5145C30.7731 17.5145 30.1959 17.5202 29.9526 17.5145V18.9858ZM29.9526 17.1467C30.2186 17.141 30.8297 17.158 31.0504 17.158C31.7182 17.158 32.0294 16.8807 32.0294 16.5073C32.0294 16.0885 31.6333 15.9357 31.2655 15.9244C31.1183 15.9187 30.428 15.9187 29.9526 15.9131V17.1467Z" fill="white"/>
<path d="M33.9131 17.5202C33.9414 18.4369 34.4846 19.065 35.3844 19.065C36.0012 19.065 36.6067 18.9802 36.8444 18.154H37.2971C37.0085 19.1499 36.1936 19.5178 35.3844 19.5178C34.23 19.5178 33.4151 18.7199 33.4151 17.4466C33.4151 16.1734 34.23 15.3755 35.3844 15.3755C36.618 15.3755 37.3423 16.1507 37.2971 17.5202H33.9131ZM33.9414 17.0675H36.7934C36.7255 16.3941 36.3294 15.8282 35.3844 15.8282C34.5921 15.8282 34.0715 16.3205 33.9414 17.0675Z" fill="white"/>
<path d="M38.1438 15.466H38.6531L39.9433 15.4717C41.109 15.4773 41.307 16.3545 41.307 16.7053C41.307 17.1071 41.0467 17.9389 39.9433 17.9389H38.6531V19.4272H38.1438V15.466ZM38.6531 17.4919C38.953 17.4806 39.7169 17.4975 39.8584 17.4975C40.5657 17.4975 40.8091 17.1014 40.8091 16.7053C40.8091 16.3262 40.5884 15.9301 39.9433 15.9187C39.932 15.9187 39.185 15.9187 38.6531 15.9131V17.4919Z" fill="white"/>
<path d="M45.0553 16.96C44.9478 16.1281 44.4159 15.8282 43.7312 15.8282C42.8484 15.8282 42.2599 16.3997 42.2599 17.4466C42.2599 18.5161 42.871 19.065 43.7198 19.065C44.5008 19.065 45.0497 18.7708 45.2081 18.0125H45.6778C45.4062 19.0198 44.7271 19.5178 43.7255 19.5178C42.4296 19.5178 41.7619 18.6916 41.7619 17.4579C41.7619 16.0602 42.622 15.3755 43.7085 15.3755C44.7045 15.3755 45.3892 15.9527 45.542 16.96H45.0553Z" fill="white"/>
<path d="M48.0684 19.5178C46.9253 19.5178 46.4726 18.7482 46.4726 17.7465V15.4717H46.9706V17.6107C46.9706 18.6746 47.4177 19.065 48.108 19.065C49.1379 19.065 49.5058 18.1936 49.5114 17.3787L49.5284 15.466H50.0151V19.4272H49.585L49.551 18.5161H49.5341C49.5058 18.7651 49.2002 19.5178 48.0684 19.5178Z" fill="white"/>
<path d="M55.9813 16.9543C55.9813 16.1904 55.6984 15.8678 55.0872 15.8678C54.3233 15.8678 54.046 16.3714 54.046 17.1184V19.4216H53.5367V17.2033C53.5367 16.2979 53.2934 15.8508 52.586 15.8508C51.4882 15.8508 51.4882 16.9373 51.4882 17.1467V19.4272H50.9789V15.466H51.4033L51.4882 16.2469C51.5391 15.964 51.9239 15.3755 52.7501 15.3755C53.3273 15.3755 53.7121 15.6697 53.8706 16.1338C54.029 15.8112 54.4478 15.3925 55.1891 15.3925C56.004 15.3925 56.4906 15.8961 56.4906 16.8524V19.4385H55.9813V16.9543Z" fill="white"/>
<path d="M57.7807 17.5202C57.809 18.4369 58.3523 19.065 59.252 19.065C59.8688 19.065 60.4743 18.9802 60.712 18.154H61.1647C60.8761 19.1499 60.0612 19.5178 59.252 19.5178C58.0976 19.5178 57.2828 18.7199 57.2828 17.4466C57.2828 16.1734 58.0976 15.3755 59.252 15.3755C60.4857 15.3755 61.21 16.1507 61.1647 17.5202H57.7807ZM57.809 17.0675H60.6611C60.5932 16.3941 60.1971 15.8282 59.252 15.8282C58.4598 15.8282 57.9392 16.3205 57.809 17.0675Z" fill="white"/>
<path d="M67.0138 16.9543C67.0138 16.1904 66.7309 15.8678 66.1197 15.8678C65.3558 15.8678 65.0785 16.3714 65.0785 17.1184V19.4216H64.5692V17.2033C64.5692 16.2979 64.3259 15.8508 63.6185 15.8508C62.5207 15.8508 62.5207 16.9373 62.5207 17.1467V19.4272H62.0114V15.466H62.4358L62.5207 16.2469C62.5716 15.964 62.9564 15.3755 63.7826 15.3755C64.3598 15.3755 64.7446 15.6697 64.9031 16.1338C65.0615 15.8112 65.4803 15.3925 66.2216 15.3925C67.0365 15.3925 67.5231 15.8961 67.5231 16.8524V19.4385H67.0138V16.9543Z" fill="white"/>
<path d="M71.0711 19.4272L71.0145 18.6237V17.8654V17.8371L71.0202 18.6123L71.0145 18.6237C70.7542 19.1443 70.0073 19.5121 69.4187 19.5121C68.8132 19.5121 68.2021 19.1216 68.2021 18.403C68.2021 17.888 68.5643 17.4183 69.1528 17.2033C69.6734 17.0165 70.5166 16.9034 71.0089 16.9034L71.0145 17.2655H71.0089V16.8751C71.0089 16.6204 70.9919 15.8282 69.8884 15.8282C68.9321 15.8282 68.7793 16.4167 68.7001 16.7619H68.2078C68.27 16.3771 68.5869 15.3755 69.9111 15.3755C71.0202 15.3755 71.5182 16.0659 71.5182 16.9996V18.6237C71.5182 18.8783 71.5182 18.9858 71.8577 18.9858L72.1237 18.9915V19.4272H71.0711ZM68.7227 18.4143C68.7227 18.6916 68.8585 19.0254 69.4187 19.0254C70.1997 19.0254 70.9523 18.3916 71.0145 17.8654L71.0089 17.2655C70.7146 17.2825 69.7979 17.4636 69.2942 17.6503C68.8359 17.8201 68.7227 18.1653 68.7227 18.4143Z" fill="white"/>
<path d="M74.0453 15.466H74.5546V17.5541L76.439 15.466H77.0501L75.5845 17.0788L77.3444 19.4272H76.7672L75.2619 17.441L74.5602 18.2106L74.5546 18.2049V19.4272H74.0453V15.466Z" fill="white"/>
<path d="M79.5442 19.5178C78.3333 19.5178 77.575 18.7199 77.575 17.4466C77.575 16.1734 78.3333 15.3755 79.5442 15.3755C80.7552 15.3755 81.5135 16.1734 81.5135 17.4466C81.5135 18.7199 80.7552 19.5178 79.5442 19.5178ZM78.0729 17.4466C78.0729 18.4426 78.6388 19.065 79.5442 19.065C80.4497 19.065 81.0155 18.4426 81.0155 17.4466C81.0155 16.4507 80.4497 15.8282 79.5442 15.8282C78.6388 15.8282 78.0729 16.4507 78.0729 17.4466Z" fill="white"/>
<path d="M85.5405 16.9543C85.433 16.1225 84.9052 15.8282 84.2205 15.8282C83.3377 15.8282 82.7492 16.3997 82.7492 17.4466C82.7492 18.5161 83.3604 19.065 84.2092 19.065C84.9901 19.065 85.539 18.7708 85.6975 18.0125H86.1672C85.8955 19.0198 85.2165 19.5178 84.2149 19.5178C82.919 19.5178 82.2512 18.6916 82.2512 17.4579C82.2512 16.0602 83.1114 15.3755 84.1979 15.3755C85.1938 15.3755 85.8785 15.9527 86.0313 16.96L85.5405 16.9543Z" fill="white"/>
<path d="M87.0186 19.4272V15.466H87.5279V16.9543H88.8181C89.9216 16.9543 90.1819 17.7805 90.1819 18.1653C90.1819 18.5331 89.9838 19.4159 88.8181 19.4216L87.5279 19.4272H87.0186ZM87.5279 18.9802C88.0428 18.9745 88.8011 18.9745 88.8181 18.9745C89.4858 18.9632 89.7178 18.5671 89.7178 18.154C89.7178 17.7918 89.4292 17.3957 88.8181 17.3957C88.5408 17.3957 87.8165 17.4127 87.5279 17.4013V18.9802ZM90.6912 19.4272V15.466H91.2005V19.4272H90.6912Z" fill="white"/>
<path d="M92.1646 15.466H95.0053V15.9357H92.6739V19.4272H92.1646V15.466Z" fill="white"/>
<path d="M97.1643 19.5178C96.0212 19.5178 95.5685 18.7482 95.5685 17.7465V15.4717H96.0665V17.6107C96.0665 18.6746 96.5135 19.065 97.2039 19.065C98.2338 19.065 98.6016 18.1936 98.6073 17.3787L98.6243 15.466H99.1109V19.4272H98.6808L98.6469 18.5161H98.6299C98.6016 18.7651 98.296 19.5178 97.1643 19.5178Z" fill="white"/>
<path d="M100.075 15.466H100.584V17.1524H102.802V15.466H103.312V19.4272H102.802V17.622H100.584V19.4272H100.075V15.466Z" fill="white"/>
<path d="M106.918 19.4272L106.862 18.6237V17.8654V17.8371L106.868 18.6123L106.862 18.6237C106.602 19.1443 105.855 19.5121 105.266 19.5121C104.661 19.5121 104.049 19.1216 104.049 18.403C104.049 17.888 104.412 17.4183 105 17.2033C105.521 17.0165 106.364 16.9034 106.856 16.9034L106.862 17.2655H106.856V16.8751C106.856 16.6204 106.839 15.8282 105.736 15.8282C104.779 15.8282 104.627 16.4167 104.547 16.7619H104.055C104.117 16.3771 104.434 15.3755 105.758 15.3755C106.868 15.3755 107.366 16.0659 107.366 16.9996V18.6237C107.366 18.8783 107.366 18.9858 107.705 18.9858L107.971 18.9915V19.4272H106.918ZM104.57 18.4143C104.57 18.6916 104.706 19.0254 105.266 19.0254C106.047 19.0254 106.8 18.3916 106.862 17.8654L106.856 17.2655C106.562 17.2825 105.645 17.4636 105.142 17.6503C104.683 17.8201 104.57 18.1653 104.57 18.4143Z" fill="white"/>
<path d="M19.5935 15.466V15.3299H19.5036L19.4683 15.4125L19.5935 15.466ZM20.1141 15.466L20.2393 15.5195L20.3203 15.3299H20.1141V15.466ZM18.6541 18.884L18.5289 18.8305L18.5287 18.8309L18.6541 18.884ZM17.2564 19.5234H17.1202V19.6596H17.2564V19.5234ZM17.2564 19.0481V18.9119H17.1202V19.0481H17.2564ZM18.275 18.5558L18.4002 18.6091L18.4004 18.6087L18.275 18.5558ZM18.3825 18.3011L18.5079 18.3541L18.5349 18.2901L18.499 18.2306L18.3825 18.3011ZM16.6678 15.466V15.3299H16.4264L16.5513 15.5365L16.6678 15.466ZM17.2281 15.466L17.3448 15.396L17.3052 15.3299H17.2281V15.466ZM18.6088 17.7692L18.492 17.8392L18.6292 18.0679L18.734 17.8227L18.6088 17.7692ZM20.7926 15.466V15.3299H20.6564V15.466H20.7926ZM21.3019 15.466H21.438V15.3299H21.3019V15.466ZM21.3019 17.1524H21.1657V17.2885H21.3019V17.1524ZM23.5202 17.1524V17.2885H23.6563V17.1524H23.5202ZM23.5202 15.466V15.3299H23.384V15.466H23.5202ZM24.0295 15.466H24.1656V15.3299H24.0295V15.466ZM24.0295 19.4272V19.5634H24.1656V19.4272H24.0295ZM23.5202 19.4272H23.384V19.5634H23.5202V19.4272ZM23.5202 17.622H23.6563V17.4859H23.5202V17.622ZM21.3019 17.622V17.4859H21.1657V17.622H21.3019ZM21.3019 19.4272V19.5634H21.438V19.4272H21.3019ZM20.7926 19.4272H20.6564V19.5634H20.7926V19.4272ZM24.937 15.4717V15.3355H24.8009V15.4717H24.937ZM25.435 15.4717H25.5712V15.3355H25.435V15.4717ZM27.9758 17.3787L27.8397 17.3775L27.8397 17.3778L27.9758 17.3787ZM27.9928 15.466V15.3299H27.8578L27.8567 15.4648L27.9928 15.466ZM28.4795 15.466H28.6156V15.3299H28.4795V15.466ZM28.4795 19.4272V19.5634H28.6156V19.4272H28.4795ZM28.0494 19.4272L27.9133 19.4323L27.9182 19.5634H28.0494V19.4272ZM28.0154 18.5161L28.1515 18.5111L28.1466 18.38H28.0154V18.5161ZM27.9985 18.5161V18.38H27.8769L27.8632 18.5008L27.9985 18.5161ZM29.4433 15.466V15.3299H29.3072V15.466H29.4433ZM29.9526 15.466L29.9533 15.3299H29.9526V15.466ZM31.107 15.4717L31.1063 15.6078L31.1064 15.6078L31.107 15.4717ZM31.7748 17.3448L31.7423 17.2125L31.7664 17.4807L31.7748 17.3448ZM31.2824 19.4216L31.283 19.5577L31.2832 19.5577L31.2824 19.4216ZM29.9526 19.4272V19.5634L29.9532 19.5634L29.9526 19.4272ZM29.4433 19.4272H29.3072V19.5634H29.4433V19.4272ZM29.9526 18.9858H29.8165V19.1234L29.9541 19.122L29.9526 18.9858ZM31.322 18.9745L31.3183 18.8384L31.3172 18.8384L31.322 18.9745ZM29.9526 17.5145L29.9558 17.3784L29.8165 17.3752V17.5145H29.9526ZM29.9526 17.1467H29.8165V17.2858L29.9555 17.2828L29.9526 17.1467ZM31.2655 15.9244L31.2602 16.0605L31.2613 16.0605L31.2655 15.9244ZM29.9526 15.9131L29.9542 15.7769L29.8165 15.7753V15.9131H29.9526ZM33.9131 17.5202V17.384H33.7727L33.777 17.5244L33.9131 17.5202ZM36.8444 18.154V18.0178H36.7418L36.7135 18.1163L36.8444 18.154ZM37.2971 18.154L37.4278 18.1919L37.4783 18.0178H37.2971V18.154ZM37.2971 17.5202V17.6563H37.4288L37.4331 17.5247L37.2971 17.5202ZM33.9414 17.0675L33.8072 17.0441L33.7794 17.2036H33.9414V17.0675ZM36.7934 17.0675V17.2036H36.944L36.9289 17.0538L36.7934 17.0675ZM38.1438 15.466V15.3299H38.0076V15.466H38.1438ZM38.6531 15.466L38.6537 15.3299H38.6531V15.466ZM39.9433 15.4717L39.9439 15.3355L39.9439 15.3355L39.9433 15.4717ZM38.6531 17.9389V17.8028H38.5169V17.9389H38.6531ZM38.6531 19.4272V19.5634H38.7892V19.4272H38.6531ZM38.1438 19.4272H38.0076V19.5634H38.1438V19.4272ZM38.6531 17.4919H38.5169V17.6333L38.6582 17.6279L38.6531 17.4919ZM39.9433 15.9187L39.9457 15.7826H39.9433V15.9187ZM38.6531 15.9131L38.6545 15.7769L38.5169 15.7755V15.9131H38.6531ZM45.0553 16.96L44.9203 16.9774L44.9356 17.0961H45.0553V16.96ZM45.2081 18.0125V17.8763H45.0975L45.0748 17.9847L45.2081 18.0125ZM45.6778 18.0125L45.8092 18.048L45.8555 17.8763H45.6778V18.0125ZM45.542 16.96V17.0961H45.7003L45.6766 16.9395L45.542 16.96ZM46.4726 15.4717V15.3355H46.3365V15.4717H46.4726ZM46.9706 15.4717H47.1068V15.3355H46.9706V15.4717ZM49.5114 17.3787L49.3753 17.3775V17.3778L49.5114 17.3787ZM49.5284 15.466V15.3299H49.3934L49.3923 15.4648L49.5284 15.466ZM50.0151 15.466H50.1512V15.3299H50.0151V15.466ZM50.0151 19.4272V19.5634H50.1512V19.4272H50.0151ZM49.585 19.4272L49.4489 19.4323L49.4538 19.5634H49.585V19.4272ZM49.551 18.5161L49.6871 18.5111L49.6822 18.38H49.551V18.5161ZM49.5341 18.5161V18.38H49.4125L49.3988 18.5008L49.5341 18.5161ZM54.046 19.4216V19.5577H54.1822V19.4216H54.046ZM53.5367 19.4216H53.4006V19.5577H53.5367V19.4216ZM51.4882 19.4272V19.5634H51.6244V19.4272H51.4882ZM50.9789 19.4272H50.8428V19.5634H50.9789V19.4272ZM50.9789 15.466V15.3299H50.8428V15.466H50.9789ZM51.4033 15.466L51.5387 15.4513L51.5255 15.3299H51.4033V15.466ZM51.4882 16.2469L51.3529 16.2617L51.6222 16.2711L51.4882 16.2469ZM53.8706 16.1338L53.7417 16.1778L53.8479 16.4887L53.9928 16.1938L53.8706 16.1338ZM56.4906 19.4385V19.5747H56.6268V19.4385H56.4906ZM55.9813 19.4385H55.8452V19.5747H55.9813V19.4385ZM57.7807 17.5202V17.384H57.6403L57.6446 17.5244L57.7807 17.5202ZM60.712 18.154V18.0178H60.6095L60.5812 18.1163L60.712 18.154ZM61.1647 18.154L61.2955 18.1919L61.3459 18.0178H61.1647V18.154ZM61.1647 17.5202V17.6563H61.2964L61.3008 17.5247L61.1647 17.5202ZM57.809 17.0675L57.6749 17.0441L57.6471 17.2036H57.809V17.0675ZM60.6611 17.0675V17.2036H60.8117L60.7965 17.0538L60.6611 17.0675ZM65.0785 19.4216V19.5577H65.2147V19.4216H65.0785ZM64.5692 19.4216H64.4331V19.5577H64.5692V19.4216ZM62.5207 19.4272V19.5634H62.6569V19.4272H62.5207ZM62.0114 19.4272H61.8753V19.5634H62.0114V19.4272ZM62.0114 15.466V15.3299H61.8753V15.466H62.0114ZM62.4358 15.466L62.5712 15.4513L62.558 15.3299H62.4358V15.466ZM62.5207 16.2469L62.3854 16.2617L62.6547 16.2711L62.5207 16.2469ZM64.9031 16.1338L64.7742 16.1778L64.8804 16.4887L65.0253 16.1938L64.9031 16.1338ZM67.5231 19.4385V19.5747H67.6593V19.4385H67.5231ZM67.0138 19.4385H66.8777V19.5747H67.0138V19.4385ZM71.0711 19.4272L70.9353 19.4368L70.9442 19.5634H71.0711V19.4272ZM71.0145 17.8371L71.1507 17.8361L70.8784 17.8371H71.0145ZM71.0202 18.6123L71.142 18.6732L71.1566 18.644L71.1563 18.6113L71.0202 18.6123ZM69.1528 17.2033L69.1068 17.0751L69.106 17.0754L69.1528 17.2033ZM71.0089 16.9034L71.145 16.9012L71.1429 16.7672H71.0089V16.9034ZM71.0145 17.2655V17.4017H71.1528L71.1507 17.2634L71.0145 17.2655ZM68.7001 16.7619V16.8981H68.8085L68.8328 16.7924L68.7001 16.7619ZM68.2078 16.7619L68.0733 16.7402L68.0478 16.8981H68.2078V16.7619ZM71.8577 18.9858L71.8606 18.8497H71.8577V18.9858ZM72.1237 18.9915H72.2598V18.8582L72.1266 18.8554L72.1237 18.9915ZM72.1237 19.4272V19.5634H72.2598V19.4272H72.1237ZM69.2942 17.6503L69.3415 17.778L69.3416 17.778L69.2942 17.6503ZM74.0453 15.466V15.3299H73.9091V15.466H74.0453ZM74.5546 15.466H74.6907V15.3299H74.5546V15.466ZM74.5546 17.5541H74.4184V17.9082L74.6556 17.6454L74.5546 17.5541ZM76.439 15.466V15.3299H76.3784L76.3379 15.3748L76.439 15.466ZM77.0501 15.466L77.1509 15.5576L77.3578 15.3299H77.0501V15.466ZM75.5845 17.0788L75.4837 16.9872L75.4081 17.0705L75.4755 17.1604L75.5845 17.0788ZM77.3444 19.4272V19.5634H77.6165L77.4533 19.3456L77.3444 19.4272ZM76.7672 19.4272L76.6587 19.5094L76.6995 19.5634H76.7672V19.4272ZM75.2619 17.441L75.3704 17.3587L75.2716 17.2283L75.1613 17.3492L75.2619 17.441ZM74.5602 18.2106L74.464 18.3069L74.5648 18.4076L74.6608 18.3023L74.5602 18.2106ZM74.5546 18.2049L74.6508 18.1086L74.4184 17.8763V18.2049H74.5546ZM74.5546 19.4272V19.5634H74.6907V19.4272H74.5546ZM74.0453 19.4272H73.9091V19.5634H74.0453V19.4272ZM85.5405 16.9543L85.4055 16.9718L85.4207 17.0891L85.539 17.0904L85.5405 16.9543ZM85.6975 18.0125V17.8763H85.5868L85.5642 17.9847L85.6975 18.0125ZM86.1672 18.0125L86.2986 18.048L86.3449 17.8763H86.1672V18.0125ZM86.0313 16.96L86.0298 17.0961L86.19 17.098L86.166 16.9395L86.0313 16.96ZM87.0186 19.4272H86.8824V19.5634H87.0186V19.4272ZM87.0186 15.466V15.3299H86.8824V15.466H87.0186ZM87.5279 15.466H87.664V15.3299H87.5279V15.466ZM87.5279 16.9543H87.3917V17.0905H87.5279V16.9543ZM88.8181 19.4216L88.8187 19.5577L88.8187 19.5577L88.8181 19.4216ZM87.5279 19.4272V19.5634L87.5285 19.5634L87.5279 19.4272ZM87.5279 18.9802H87.3917V19.1178L87.5294 19.1163L87.5279 18.9802ZM88.8181 18.9745V19.1107L88.8204 19.1106L88.8181 18.9745ZM87.5279 17.4013L87.5332 17.2653L87.3917 17.2598V17.4013H87.5279ZM90.6912 19.4272H90.555V19.5634H90.6912V19.4272ZM90.6912 15.466V15.3299H90.555V15.466H90.6912ZM91.2005 15.466H91.3366V15.3299H91.2005V15.466ZM91.2005 19.4272V19.5634H91.3366V19.4272H91.2005ZM92.1646 15.466V15.3299H92.0284V15.466H92.1646ZM95.0053 15.466H95.1415V15.3299H95.0053V15.466ZM95.0053 15.9357V16.0719H95.1415V15.9357H95.0053ZM92.6739 15.9357V15.7996H92.5377V15.9357H92.6739ZM92.6739 19.4272V19.5634H92.81V19.4272H92.6739ZM92.1646 19.4272H92.0284V19.5634H92.1646V19.4272ZM95.5685 15.4717V15.3355H95.4323V15.4717H95.5685ZM96.0665 15.4717H96.2026V15.3355H96.0665V15.4717ZM98.6073 17.3787L98.4711 17.3775V17.3778L98.6073 17.3787ZM98.6243 15.466V15.3299H98.4893L98.4881 15.4648L98.6243 15.466ZM99.1109 15.466H99.2471V15.3299H99.1109V15.466ZM99.1109 19.4272V19.5634H99.2471V19.4272H99.1109ZM98.6808 19.4272L98.5448 19.4323L98.5497 19.5634H98.6808V19.4272ZM98.6469 18.5161L98.783 18.5111L98.7781 18.38H98.6469V18.5161ZM98.6299 18.5161V18.38H98.5084L98.4946 18.5008L98.6299 18.5161ZM100.075 15.466V15.3299H99.9386V15.466H100.075ZM100.584 15.466H100.72V15.3299H100.584V15.466ZM100.584 17.1524H100.448V17.2885H100.584V17.1524ZM102.802 17.1524V17.2885H102.938V17.1524H102.802ZM102.802 15.466V15.3299H102.666V15.466H102.802ZM103.312 15.466H103.448V15.3299H103.312V15.466ZM103.312 19.4272V19.5634H103.448V19.4272H103.312ZM102.802 19.4272H102.666V19.5634H102.802V19.4272ZM102.802 17.622H102.938V17.4859H102.802V17.622ZM100.584 17.622V17.4859H100.448V17.622H100.584ZM100.584 19.4272V19.5634H100.72V19.4272H100.584ZM100.075 19.4272H99.9386V19.5634H100.075V19.4272ZM106.918 19.4272L106.783 19.4368L106.792 19.5634H106.918V19.4272ZM106.862 17.8371L106.998 17.8361L106.726 17.8371H106.862ZM106.868 18.6123L106.989 18.6732L107.004 18.644L107.004 18.6113L106.868 18.6123ZM105 17.2033L104.954 17.0751L104.953 17.0754L105 17.2033ZM106.856 16.9034L106.992 16.9012L106.99 16.7672H106.856V16.9034ZM106.862 17.2655V17.4017H107L106.998 17.2634L106.862 17.2655ZM104.547 16.7619V16.8981H104.656L104.68 16.7924L104.547 16.7619ZM104.055 16.7619L103.921 16.7402L103.895 16.8981H104.055V16.7619ZM107.705 18.9858L107.708 18.8497H107.705V18.9858ZM107.971 18.9915H108.107V18.8582L107.974 18.8554L107.971 18.9915ZM107.971 19.4272V19.5634H108.107V19.4272H107.971ZM105.142 17.6503L105.189 17.778L105.189 17.778L105.142 17.6503ZM19.5935 15.466V15.6022H20.1141V15.466V15.3299H19.5935V15.466ZM20.1141 15.466L19.9889 15.4125L18.5289 18.8305L18.6541 18.884L18.7793 18.9374L20.2393 15.5195L20.1141 15.466ZM18.6541 18.884L18.5287 18.8309C18.3925 19.1528 18.1682 19.2882 17.9344 19.3476C17.6888 19.41 17.4446 19.3873 17.2564 19.3873V19.5234V19.6596C17.4133 19.6596 17.7124 19.6849 18.0015 19.6115C18.3025 19.5351 18.6044 19.3508 18.7795 18.937L18.6541 18.884ZM17.2564 19.5234H17.3925V19.0481H17.2564H17.1202V19.5234H17.2564ZM17.2564 19.0481V19.1842C17.4796 19.1842 17.7086 19.1961 17.9027 19.1303C18.1158 19.0581 18.2762 18.9005 18.4002 18.6091L18.275 18.5558L18.1497 18.5024C18.0473 18.743 17.9362 18.8315 17.8153 18.8724C17.6756 18.9198 17.5084 18.9119 17.2564 18.9119V19.0481ZM18.275 18.5558L18.4004 18.6087L18.5079 18.3541L18.3825 18.3011L18.257 18.2481L18.1495 18.5028L18.275 18.5558ZM18.3825 18.3011L18.499 18.2306L16.7843 15.3956L16.6678 15.466L16.5513 15.5365L18.266 18.3716L18.3825 18.3011ZM16.6678 15.466V15.6022H17.2281V15.466V15.3299H16.6678V15.466ZM17.2281 15.466L17.1113 15.536L18.492 17.8392L18.6088 17.7692L18.7256 17.6992L17.3448 15.396L17.2281 15.466ZM18.6088 17.7692L18.734 17.8227L19.7187 15.5196L19.5935 15.466L19.4683 15.4125L18.4836 17.7157L18.6088 17.7692ZM20.7926 15.466V15.6022H21.3019V15.466V15.3299H20.7926V15.466ZM21.3019 15.466H21.1657V17.1524H21.3019H21.438V15.466H21.3019ZM21.3019 17.1524V17.2885H23.5202V17.1524V17.0162H21.3019V17.1524ZM23.5202 17.1524H23.6563V15.466H23.5202H23.384V17.1524H23.5202ZM23.5202 15.466V15.6022H24.0295V15.466V15.3299H23.5202V15.466ZM24.0295 15.466H23.8933V19.4272H24.0295H24.1656V15.466H24.0295ZM24.0295 19.4272V19.2911H23.5202V19.4272V19.5634H24.0295V19.4272ZM23.5202 19.4272H23.6563V17.622H23.5202H23.384V19.4272H23.5202ZM23.5202 17.622V17.4859H21.3019V17.622V17.7582H23.5202V17.622ZM21.3019 17.622H21.1657V19.4272H21.3019H21.438V17.622H21.3019ZM21.3019 19.4272V19.2911H20.7926V19.4272V19.5634H21.3019V19.4272ZM20.7926 19.4272H20.9288V15.466H20.7926H20.6564V19.4272H20.7926ZM26.5328 19.5178V19.3816C25.9945 19.3816 25.6378 19.2021 25.4123 18.9223C25.1827 18.6375 25.0732 18.2295 25.0732 17.7465H24.937H24.8009C24.8009 18.2651 24.9177 18.7428 25.2003 19.0932C25.4868 19.4486 25.9281 19.6539 26.5328 19.6539V19.5178ZM24.937 17.7465H25.0732V15.4717H24.937H24.8009V17.7465H24.937ZM24.937 15.4717V15.6078H25.435V15.4717V15.3355H24.937V15.4717ZM25.435 15.4717H25.2989V17.6107H25.435H25.5712V15.4717H25.435ZM25.435 17.6107H25.2989C25.2989 18.1583 25.4134 18.5599 25.6415 18.8255C25.8733 19.0954 26.2014 19.2012 26.5724 19.2012V19.065V18.9289C26.2531 18.9289 26.0125 18.8395 25.8481 18.6481C25.6802 18.4526 25.5712 18.127 25.5712 17.6107H25.435ZM26.5724 19.065V19.2012C27.1325 19.2012 27.5235 18.9611 27.7702 18.605C28.0121 18.2555 28.109 17.8041 28.112 17.3797L27.9758 17.3787L27.8397 17.3778C27.837 17.7682 27.7471 18.1599 27.5463 18.4499C27.3501 18.7333 27.0423 18.9289 26.5724 18.9289V19.065ZM27.9758 17.3787L28.112 17.3799L28.1289 15.4672L27.9928 15.466L27.8567 15.4648L27.8397 17.3775L27.9758 17.3787ZM27.9928 15.466V15.6022H28.4795V15.466V15.3299H27.9928V15.466ZM28.4795 15.466H28.3433V19.4272H28.4795H28.6156V15.466H28.4795ZM28.4795 19.4272V19.2911H28.0494V19.4272V19.5634H28.4795V19.4272ZM28.0494 19.4272L28.1854 19.4221L28.1515 18.5111L28.0154 18.5161L27.8794 18.5212L27.9133 19.4323L28.0494 19.4272ZM28.0154 18.5161V18.38H27.9985V18.5161V18.6523H28.0154V18.5161ZM27.9985 18.5161L27.8632 18.5008C27.8524 18.5958 27.782 18.8171 27.5836 19.0136C27.3896 19.2057 27.0655 19.3816 26.5328 19.3816V19.5178V19.6539C27.1319 19.6539 27.5265 19.4534 27.7753 19.2071C28.0196 18.965 28.1162 18.6855 28.1337 18.5315L27.9985 18.5161ZM29.4433 15.466V15.6022H29.9526V15.466V15.3299H29.4433V15.466ZM29.9526 15.466L29.9519 15.6022L31.1063 15.6078L31.107 15.4717L31.1077 15.3355L29.9533 15.3299L29.9526 15.466ZM31.107 15.4717L31.1064 15.6078C31.6833 15.6106 31.9894 15.7526 32.1522 15.9137C32.3145 16.0742 32.3573 16.2763 32.3573 16.4507H32.4934H32.6296C32.6296 16.2345 32.5762 15.95 32.3437 15.7201C32.1118 15.4907 31.7248 15.3385 31.1077 15.3355L31.107 15.4717ZM32.4934 16.4507H32.3573C32.3573 16.8997 32.0261 17.1428 31.7423 17.2125L31.7748 17.3448L31.8072 17.477C32.1686 17.3882 32.6296 17.0655 32.6296 16.4507H32.4934ZM31.7748 17.3448L31.7664 17.4807C31.9681 17.4931 32.1621 17.5688 32.3045 17.707C32.4448 17.8432 32.544 18.0488 32.544 18.3407H32.6802H32.8163C32.8163 17.9819 32.692 17.7036 32.4942 17.5116C32.2984 17.3216 32.0398 17.2247 31.7831 17.2089L31.7748 17.3448ZM32.6802 18.3407H32.544C32.544 18.5913 32.4705 18.8195 32.2898 18.9872C32.1076 19.1562 31.7962 19.2827 31.2817 19.2854L31.2824 19.4216L31.2832 19.5577C31.8382 19.5548 32.2257 19.4181 32.475 19.1868C32.7258 18.9541 32.8163 18.6447 32.8163 18.3407H32.6802ZM31.2824 19.4216L31.2819 19.2854L29.952 19.2911L29.9526 19.4272L29.9532 19.5634L31.283 19.5577L31.2824 19.4216ZM29.9526 19.4272V19.2911H29.4433V19.4272V19.5634H29.9526V19.4272ZM29.4433 19.4272H29.5795V15.466H29.4433H29.3072V19.4272H29.4433ZM29.9526 18.9858L29.9541 19.122C30.4817 19.1164 31.1664 19.1163 31.3269 19.1106L31.322 18.9745L31.3172 18.8384C31.1608 18.844 30.4874 18.844 29.9512 18.8497L29.9526 18.9858ZM31.322 18.9745L31.3258 19.1106C31.5377 19.1047 31.7868 19.0696 31.9872 18.9537C32.1981 18.8317 32.3466 18.624 32.3466 18.3068H32.2105H32.0743C32.0743 18.5215 31.9823 18.642 31.8509 18.718C31.7089 18.8001 31.5139 18.833 31.3183 18.8384L31.322 18.9745ZM32.2105 18.3068H32.3466C32.3466 18.0287 32.2311 17.7922 32.0329 17.6276C31.8368 17.4648 31.5678 17.3784 31.2655 17.3784V17.5145V17.6507C31.5177 17.6507 31.7211 17.7227 31.8589 17.8371C31.9947 17.9499 32.0743 18.1095 32.0743 18.3068H32.2105ZM31.2655 17.5145V17.3784C30.7699 17.3784 30.1971 17.384 29.9558 17.3784L29.9526 17.5145L29.9494 17.6506C30.1948 17.6563 30.7764 17.6507 31.2655 17.6507V17.5145ZM29.9526 17.5145H29.8165V18.9858H29.9526H30.0888V17.5145H29.9526ZM29.9526 17.1467L29.9555 17.2828C30.2219 17.2772 30.8194 17.2942 31.0504 17.2942V17.158V17.0219C30.84 17.0219 30.2153 17.0049 29.9497 17.0106L29.9526 17.1467ZM31.0504 17.158V17.2942C31.4006 17.2942 31.6771 17.2218 31.8698 17.0832C32.0677 16.9409 32.1656 16.7365 32.1656 16.5073H32.0294H31.8932C31.8932 16.6515 31.8355 16.7725 31.7108 16.8622C31.581 16.9556 31.368 17.0219 31.0504 17.0219V17.158ZM32.0294 16.5073H32.1656C32.1656 16.246 32.038 16.062 31.8583 15.9481C31.6854 15.8384 31.4676 15.7944 31.2696 15.7883L31.2655 15.9244L31.2613 16.0605C31.4311 16.0657 31.5953 16.1037 31.7124 16.178C31.8227 16.248 31.8932 16.3498 31.8932 16.5073H32.0294ZM31.2655 15.9244L31.2707 15.7883C31.1214 15.7826 30.4246 15.7825 29.9542 15.7769L29.9526 15.9131L29.951 16.0492C30.4313 16.0549 31.1152 16.0549 31.2602 16.0604L31.2655 15.9244ZM29.9526 15.9131H29.8165V17.1467H29.9526H30.0888V15.9131H29.9526ZM33.9131 17.5202L33.777 17.5244C33.7919 18.008 33.9432 18.4282 34.2221 18.729C34.5025 19.0314 34.9009 19.2012 35.3844 19.2012V19.065V18.9289C34.9681 18.9289 34.645 18.7847 34.4218 18.5438C34.197 18.3013 34.0625 17.9491 34.0492 17.516L33.9131 17.5202ZM35.3844 19.065V19.2012C35.6948 19.2012 36.0276 19.1809 36.3157 19.042C36.6129 18.8987 36.847 18.6373 36.9752 18.1916L36.8444 18.154L36.7135 18.1163C36.6041 18.4968 36.4166 18.691 36.1974 18.7967C35.9691 18.9068 35.6908 18.9289 35.3844 18.9289V19.065ZM36.8444 18.154V18.2901H37.2971V18.154V18.0178H36.8444V18.154ZM37.2971 18.154L37.1663 18.1161C37.031 18.5831 36.7751 18.8962 36.463 19.0944C36.1486 19.294 35.7694 19.3816 35.3844 19.3816V19.5178V19.6539C35.8086 19.6539 36.2414 19.5576 36.6089 19.3243C36.9787 19.0896 37.2746 18.7208 37.4278 18.1919L37.2971 18.154ZM35.3844 19.5178V19.3816C34.8394 19.3816 34.3839 19.1939 34.0646 18.8648C33.745 18.5355 33.5513 18.0537 33.5513 17.4466H33.4151H33.279C33.279 18.1127 33.4926 18.6665 33.8691 19.0545C34.2458 19.4426 34.7749 19.6539 35.3844 19.6539V19.5178ZM33.4151 17.4466H33.5513C33.5513 16.8395 33.745 16.3577 34.0646 16.0284C34.3839 15.6993 34.8394 15.5116 35.3844 15.5116V15.3755V15.2393C34.7749 15.2393 34.2458 15.4506 33.8691 15.8388C33.4926 16.2267 33.279 16.7805 33.279 17.4466H33.4151ZM35.3844 15.3755V15.5116C35.9722 15.5116 36.4212 15.6955 36.7193 16.0256C37.0185 16.3569 37.1828 16.8547 37.161 17.5157L37.2971 17.5202L37.4331 17.5247C37.4566 16.8162 37.2813 16.2417 36.9214 15.843C36.5602 15.4431 36.0302 15.2393 35.3844 15.2393V15.3755ZM37.2971 17.5202V17.384H33.9131V17.5202V17.6563H37.2971V17.5202ZM33.9414 17.0675V17.2036H36.7934V17.0675V16.9313H33.9414V17.0675ZM36.7934 17.0675L36.9289 17.0538C36.8928 16.6959 36.7681 16.3531 36.5141 16.099C36.258 15.843 35.8854 15.692 35.3844 15.692V15.8282V15.9643C35.8284 15.9643 36.1263 16.0964 36.3215 16.2916C36.5188 16.4888 36.6261 16.7657 36.658 17.0811L36.7934 17.0675ZM35.3844 15.8282V15.692C34.9589 15.692 34.5976 15.8248 34.3245 16.0656C34.0522 16.3058 33.8767 16.6453 33.8072 17.0441L33.9414 17.0675L34.0755 17.0908C34.1362 16.7427 34.2861 16.4626 34.5046 16.2698C34.7225 16.0777 35.0176 15.9643 35.3844 15.9643V15.8282ZM38.1438 15.466V15.6022H38.6531V15.466V15.3299H38.1438V15.466ZM38.6531 15.466L38.6525 15.6022L39.9427 15.6078L39.9433 15.4717L39.9439 15.3355L38.6537 15.3299L38.6531 15.466ZM39.9433 15.4717L39.9426 15.6078C40.4862 15.6105 40.7853 15.8136 40.9529 16.04C41.1259 16.2739 41.1709 16.5496 41.1709 16.7053H41.307H41.4432C41.4432 16.5102 41.3892 16.1719 41.1718 15.8781C40.9489 15.5769 40.5661 15.3386 39.9439 15.3355L39.9433 15.4717ZM41.307 16.7053H41.1709C41.1709 16.8823 41.1124 17.1592 40.9319 17.3886C40.7564 17.6119 40.456 17.8028 39.9433 17.8028V17.9389V18.0751C40.534 18.0751 40.9155 17.8501 41.146 17.5569C41.3716 17.27 41.4432 16.9301 41.4432 16.7053H41.307ZM39.9433 17.9389V17.8028H38.6531V17.9389V18.0751H39.9433V17.9389ZM38.6531 17.9389H38.5169V19.4272H38.6531H38.7892V17.9389H38.6531ZM38.6531 19.4272V19.2911H38.1438V19.4272V19.5634H38.6531V19.4272ZM38.1438 19.4272H38.2799V15.466H38.1438H38.0076V19.4272H38.1438ZM38.6531 17.4919L38.6582 17.6279C38.9553 17.6167 39.7087 17.6337 39.8584 17.6337V17.4975V17.3614C39.7252 17.3614 38.9506 17.3444 38.6479 17.3558L38.6531 17.4919ZM39.8584 17.4975V17.6337C40.2374 17.6337 40.5136 17.527 40.695 17.3465C40.8758 17.1666 40.9452 16.9305 40.9452 16.7053H40.8091H40.6729C40.6729 16.8763 40.6207 17.0363 40.5029 17.1535C40.3859 17.27 40.1867 17.3614 39.8584 17.3614V17.4975ZM40.8091 16.7053H40.9452C40.9452 16.4907 40.8827 16.2609 40.7184 16.082C40.552 15.9009 40.2969 15.7888 39.9457 15.7826L39.9433 15.9187L39.9409 16.0549C40.2347 16.06 40.4125 16.1516 40.5178 16.2662C40.6251 16.3829 40.6729 16.5408 40.6729 16.7053H40.8091ZM39.9433 15.9187V15.7826C39.9319 15.7826 39.1856 15.7826 38.6545 15.7769L38.6531 15.9131L38.6516 16.0492C39.1844 16.0549 39.932 16.0549 39.9433 16.0549V15.9187ZM38.6531 15.9131H38.5169V17.4919H38.6531H38.7892V15.9131H38.6531ZM45.0553 16.96L45.1903 16.9425C45.133 16.499 44.9594 16.1799 44.6928 15.9743C44.429 15.7708 44.0917 15.692 43.7312 15.692V15.8282V15.9643C44.0553 15.9643 44.3263 16.0355 44.5265 16.1899C44.724 16.3422 44.8701 16.589 44.9203 16.9774L45.0553 16.96ZM43.7312 15.8282V15.692C43.2596 15.692 42.8532 15.8455 42.5653 16.1515C42.2782 16.4568 42.1237 16.8981 42.1237 17.4466H42.2599H42.396C42.396 16.9482 42.5358 16.5804 42.7636 16.3381C42.9907 16.0967 43.3199 15.9643 43.7312 15.9643V15.8282ZM42.2599 17.4466H42.1237C42.1237 18.0071 42.2843 18.4487 42.5731 18.751C42.8624 19.0537 43.2656 19.2012 43.7198 19.2012V19.065V18.9289C43.3252 18.9289 42.9985 18.802 42.77 18.5628C42.541 18.3233 42.396 17.9556 42.396 17.4466H42.2599ZM43.7198 19.065V19.2012C44.1255 19.2012 44.4876 19.1251 44.7725 18.9367C45.0613 18.7458 45.2559 18.4493 45.3414 18.0404L45.2081 18.0125L45.0748 17.9847C45.0018 18.334 44.8428 18.5638 44.6223 18.7096C44.3979 18.8579 44.0951 18.9289 43.7198 18.9289V19.065ZM45.2081 18.0125V18.1487H45.6778V18.0125V17.8763H45.2081V18.0125ZM45.6778 18.0125L45.5463 17.9771C45.4166 18.4582 45.193 18.8061 44.8929 19.0345C44.5927 19.263 44.2035 19.3816 43.7255 19.3816V19.5178V19.6539C44.2491 19.6539 44.7002 19.5235 45.0579 19.2512C45.4156 18.9788 45.6674 18.574 45.8092 18.048L45.6778 18.0125ZM43.7255 19.5178V19.3816C43.1077 19.3816 42.6564 19.1856 42.3583 18.8587C42.0585 18.5299 41.898 18.0513 41.898 17.4579H41.7619H41.6257C41.6257 18.0982 41.7991 18.6495 42.1571 19.0422C42.5169 19.4368 43.0475 19.6539 43.7255 19.6539V19.5178ZM41.7619 17.4579H41.898C41.898 16.7877 42.1035 16.3048 42.4233 15.9895C42.7439 15.6735 43.1937 15.5116 43.7085 15.5116V15.3755V15.2393C43.1369 15.2393 42.6133 15.4199 42.2322 15.7956C41.8503 16.1721 41.6257 16.7305 41.6257 17.4579H41.7619ZM43.7085 15.3755V15.5116C44.1797 15.5116 44.5667 15.6478 44.8527 15.8933C45.1387 16.1388 45.335 16.5033 45.4074 16.9804L45.542 16.96L45.6766 16.9395C45.5962 16.4094 45.3737 15.9816 45.0301 15.6867C44.6866 15.3918 44.2333 15.2393 43.7085 15.2393V15.3755ZM45.542 16.96V16.8238H45.0553V16.96V17.0961H45.542V16.96ZM48.0684 19.5178V19.3816C47.5301 19.3816 47.1734 19.2021 46.9479 18.9223C46.7183 18.6375 46.6088 18.2295 46.6088 17.7465H46.4726H46.3365C46.3365 18.2651 46.4533 18.7428 46.7359 19.0932C47.0224 19.4486 47.4637 19.6539 48.0684 19.6539V19.5178ZM46.4726 17.7465H46.6088V15.4717H46.4726H46.3365V17.7465H46.4726ZM46.4726 15.4717V15.6078H46.9706V15.4717V15.3355H46.4726V15.4717ZM46.9706 15.4717H46.8345V17.6107H46.9706H47.1068V15.4717H46.9706ZM46.9706 17.6107H46.8345C46.8345 18.1583 46.949 18.5599 47.1771 18.8255C47.4089 19.0954 47.737 19.2012 48.108 19.2012V19.065V18.9289C47.7887 18.9289 47.5481 18.8395 47.3837 18.6481C47.2158 18.4526 47.1068 18.127 47.1068 17.6107H46.9706ZM48.108 19.065V19.2012C48.6681 19.2012 49.0592 18.9611 49.3058 18.605C49.5477 18.2555 49.6446 17.8041 49.6476 17.3797L49.5114 17.3787L49.3753 17.3778C49.3726 17.7682 49.2827 18.1599 49.0819 18.4499C48.8857 18.7333 48.5779 18.9289 48.108 18.9289V19.065ZM49.5114 17.3787L49.6476 17.3799L49.6645 15.4672L49.5284 15.466L49.3923 15.4648L49.3753 17.3775L49.5114 17.3787ZM49.5284 15.466V15.6022H50.0151V15.466V15.3299H49.5284V15.466ZM50.0151 15.466H49.8789V19.4272H50.0151H50.1512V15.466H50.0151ZM50.0151 19.4272V19.2911H49.585V19.4272V19.5634H50.0151V19.4272ZM49.585 19.4272L49.721 19.4221L49.6871 18.5111L49.551 18.5161L49.415 18.5212L49.4489 19.4323L49.585 19.4272ZM49.551 18.5161V18.38H49.5341V18.5161V18.6523H49.551V18.5161ZM49.5341 18.5161L49.3988 18.5008C49.388 18.5958 49.3176 18.8171 49.1192 19.0136C48.9252 19.2057 48.6011 19.3816 48.0684 19.3816V19.5178V19.6539C48.6675 19.6539 49.0621 19.4534 49.3108 19.2071C49.5552 18.965 49.6518 18.6855 49.6693 18.5315L49.5341 18.5161ZM55.9813 16.9543H56.1175C56.1175 16.5603 56.0454 16.2498 55.8679 16.0373C55.6857 15.8191 55.4161 15.7317 55.0872 15.7317V15.8678V16.004C55.3695 16.004 55.547 16.0778 55.659 16.2119C55.7757 16.3517 55.8452 16.5843 55.8452 16.9543H55.9813ZM55.0872 15.8678V15.7317C54.6725 15.7317 54.3673 15.8704 54.1713 16.1312C53.9808 16.3846 53.9098 16.7321 53.9098 17.1184H54.046H54.1822C54.1822 16.7578 54.2498 16.48 54.389 16.2948C54.5226 16.1171 54.738 16.004 55.0872 16.004V15.8678ZM54.046 17.1184H53.9098V19.4216H54.046H54.1822V17.1184H54.046ZM54.046 19.4216V19.2854H53.5367V19.4216V19.5577H54.046V19.4216ZM53.5367 19.4216H53.6729V17.2033H53.5367H53.4006V19.4216H53.5367ZM53.5367 17.2033H53.6729C53.6729 16.7447 53.6125 16.3722 53.4401 16.1123C53.2589 15.8392 52.9717 15.7147 52.586 15.7147V15.8508V15.987C52.9077 15.987 53.0959 16.086 53.2132 16.2628C53.3392 16.4528 53.4006 16.7564 53.4006 17.2033H53.5367ZM52.586 15.8508V15.7147C52.2881 15.7147 52.0547 15.7888 51.8747 15.9113C51.6955 16.0334 51.5782 16.1974 51.5018 16.3633C51.3509 16.6906 51.3521 17.0414 51.3521 17.1467H51.4882H51.6244C51.6244 17.0426 51.6255 16.7455 51.7491 16.4772C51.8099 16.3453 51.8985 16.2246 52.028 16.1364C52.1568 16.0487 52.335 15.987 52.586 15.987V15.8508ZM51.4882 17.1467H51.3521V19.4272H51.4882H51.6244V17.1467H51.4882ZM51.4882 19.4272V19.2911H50.9789V19.4272V19.5634H51.4882V19.4272ZM50.9789 19.4272H51.1151V15.466H50.9789H50.8428V19.4272H50.9789ZM50.9789 15.466V15.6022H51.4033V15.466V15.3299H50.9789V15.466ZM51.4033 15.466L51.268 15.4807L51.3529 16.2617L51.4882 16.2469L51.6236 16.2322L51.5387 15.4513L51.4033 15.466ZM51.4882 16.2469L51.6222 16.2711C51.6627 16.0461 51.9966 15.5116 52.7501 15.5116V15.3755V15.2393C51.8513 15.2393 51.4156 15.8819 51.3542 16.2228L51.4882 16.2469ZM52.7501 15.3755V15.5116C53.0151 15.5116 53.2274 15.5789 53.3894 15.6922C53.5512 15.8054 53.6708 15.9699 53.7417 16.1778L53.8706 16.1338L53.9994 16.0898C53.9119 15.8336 53.7598 15.619 53.5454 15.469C53.3311 15.3192 53.0623 15.2393 52.7501 15.2393V15.3755ZM53.8706 16.1338L53.9928 16.1938C54.1314 15.9116 54.5063 15.5286 55.1891 15.5286V15.3925V15.2563C54.3893 15.2563 53.9266 15.7108 53.7484 16.0737L53.8706 16.1338ZM55.1891 15.3925V15.5286C55.5678 15.5286 55.8529 15.6448 56.0448 15.8555C56.2384 16.0681 56.3545 16.3959 56.3545 16.8524H56.4906H56.6268C56.6268 16.3526 56.4995 15.9505 56.2461 15.6722C55.9909 15.392 55.6252 15.2563 55.1891 15.2563V15.3925ZM56.4906 16.8524H56.3545V19.4385H56.4906H56.6268V16.8524H56.4906ZM56.4906 19.4385V19.3024H55.9813V19.4385V19.5747H56.4906V19.4385ZM55.9813 19.4385H56.1175V16.9543H55.9813H55.8452V19.4385H55.9813ZM57.7807 17.5202L57.6446 17.5244C57.6596 18.008 57.8109 18.4282 58.0897 18.729C58.3701 19.0314 58.7686 19.2012 59.252 19.2012V19.065V18.9289C58.8358 18.9289 58.5127 18.7847 58.2894 18.5438C58.0646 18.3013 57.9302 17.9491 57.9168 17.516L57.7807 17.5202ZM59.252 19.065V19.2012C59.5625 19.2012 59.8952 19.1809 60.1833 19.042C60.4805 18.8987 60.7146 18.6373 60.8429 18.1916L60.712 18.154L60.5812 18.1163C60.4717 18.4968 60.2842 18.691 60.0651 18.7967C59.8368 18.9068 59.5584 18.9289 59.252 18.9289V19.065ZM60.712 18.154V18.2901H61.1647V18.154V18.0178H60.712V18.154ZM61.1647 18.154L61.0339 18.1161C60.8986 18.5831 60.6428 18.8962 60.3306 19.0944C60.0162 19.294 59.637 19.3816 59.252 19.3816V19.5178V19.6539C59.6763 19.6539 60.1091 19.5576 60.4766 19.3243C60.8463 19.0896 61.1422 18.7208 61.2955 18.1919L61.1647 18.154ZM59.252 19.5178V19.3816C58.7071 19.3816 58.2516 19.1939 57.9322 18.8648C57.6127 18.5355 57.4189 18.0537 57.4189 17.4466H57.2828H57.1466C57.1466 18.1127 57.3603 18.6665 57.7368 19.0545C58.1135 19.4426 58.6426 19.6539 59.252 19.6539V19.5178ZM57.2828 17.4466H57.4189C57.4189 16.8395 57.6127 16.3577 57.9322 16.0284C58.2516 15.6993 58.7071 15.5116 59.252 15.5116V15.3755V15.2393C58.6426 15.2393 58.1135 15.4506 57.7368 15.8388C57.3603 16.2267 57.1466 16.7805 57.1466 17.4466H57.2828ZM59.252 15.3755V15.5116C59.8398 15.5116 60.2888 15.6955 60.5869 16.0256C60.8862 16.3569 61.0505 16.8547 61.0286 17.5157L61.1647 17.5202L61.3008 17.5247C61.3242 16.8162 61.149 16.2417 60.789 15.843C60.4278 15.4431 59.8979 15.2393 59.252 15.2393V15.3755ZM61.1647 17.5202V17.384H57.7807V17.5202V17.6563H61.1647V17.5202ZM57.809 17.0675V17.2036H60.6611V17.0675V16.9313H57.809V17.0675ZM60.6611 17.0675L60.7965 17.0538C60.7605 16.6959 60.6358 16.3531 60.3818 16.099C60.1257 15.843 59.7531 15.692 59.252 15.692V15.8282V15.9643C59.696 15.9643 59.994 16.0964 60.1892 16.2916C60.3865 16.4888 60.4938 16.7657 60.5256 17.0811L60.6611 17.0675ZM59.252 15.8282V15.692C58.8265 15.692 58.4652 15.8248 58.1922 16.0656C57.9199 16.3058 57.7444 16.6453 57.6749 17.0441L57.809 17.0675L57.9432 17.0908C58.0038 16.7427 58.1537 16.4626 58.3723 16.2698C58.5902 16.0777 58.8853 15.9643 59.252 15.9643V15.8282ZM67.0138 16.9543H67.15C67.15 16.5603 67.0779 16.2498 66.9005 16.0373C66.7182 15.8191 66.4486 15.7317 66.1197 15.7317V15.8678V16.004C66.402 16.004 66.5795 16.0778 66.6915 16.2119C66.8082 16.3517 66.8777 16.5843 66.8777 16.9543H67.0138ZM66.1197 15.8678V15.7317C65.705 15.7317 65.3998 15.8704 65.2038 16.1312C65.0133 16.3846 64.9424 16.7321 64.9424 17.1184H65.0785H65.2147C65.2147 16.7578 65.2823 16.48 65.4215 16.2948C65.5551 16.1171 65.7705 16.004 66.1197 16.004V15.8678ZM65.0785 17.1184H64.9424V19.4216H65.0785H65.2147V17.1184H65.0785ZM65.0785 19.4216V19.2854H64.5692V19.4216V19.5577H65.0785V19.4216ZM64.5692 19.4216H64.7054V17.2033H64.5692H64.4331V19.4216H64.5692ZM64.5692 17.2033H64.7054C64.7054 16.7447 64.645 16.3722 64.4726 16.1123C64.2914 15.8392 64.0042 15.7147 63.6185 15.7147V15.8508V15.987C63.9402 15.987 64.1284 16.086 64.2457 16.2628C64.3717 16.4528 64.4331 16.7564 64.4331 17.2033H64.5692ZM63.6185 15.8508V15.7147C63.3206 15.7147 63.0872 15.7888 62.9072 15.9113C62.728 16.0334 62.6107 16.1974 62.5343 16.3633C62.3835 16.6906 62.3846 17.0414 62.3846 17.1467H62.5207H62.6569C62.6569 17.0426 62.658 16.7455 62.7816 16.4772C62.8424 16.3453 62.931 16.2246 63.0605 16.1364C63.1893 16.0487 63.3675 15.987 63.6185 15.987V15.8508ZM62.5207 17.1467H62.3846V19.4272H62.5207H62.6569V17.1467H62.5207ZM62.5207 19.4272V19.2911H62.0114V19.4272V19.5634H62.5207V19.4272ZM62.0114 19.4272H62.1476V15.466H62.0114H61.8753V19.4272H62.0114ZM62.0114 15.466V15.6022H62.4358V15.466V15.3299H62.0114V15.466ZM62.4358 15.466L62.3005 15.4807L62.3854 16.2617L62.5207 16.2469L62.6561 16.2322L62.5712 15.4513L62.4358 15.466ZM62.5207 16.2469L62.6547 16.2711C62.6952 16.0461 63.0291 15.5116 63.7826 15.5116V15.3755V15.2393C62.8838 15.2393 62.4481 15.8819 62.3867 16.2228L62.5207 16.2469ZM63.7826 15.3755V15.5116C64.0476 15.5116 64.2599 15.5789 64.4219 15.6922C64.5837 15.8054 64.7033 15.9699 64.7742 16.1778L64.9031 16.1338L65.0319 16.0898C64.9444 15.8336 64.7924 15.619 64.5779 15.469C64.3636 15.3192 64.0948 15.2393 63.7826 15.2393V15.3755ZM64.9031 16.1338L65.0253 16.1938C65.1639 15.9116 65.5388 15.5286 66.2216 15.5286V15.3925V15.2563C65.4218 15.2563 64.9592 15.7108 64.7809 16.0737L64.9031 16.1338ZM66.2216 15.3925V15.5286C66.6003 15.5286 66.8854 15.6448 67.0773 15.8555C67.2709 16.0681 67.387 16.3959 67.387 16.8524H67.5231H67.6593C67.6593 16.3526 67.532 15.9505 67.2786 15.6722C67.0235 15.392 66.6577 15.2563 66.2216 15.2563V15.3925ZM67.5231 16.8524H67.387V19.4385H67.5231H67.6593V16.8524H67.5231ZM67.5231 19.4385V19.3024H67.0138V19.4385V19.5747H67.5231V19.4385ZM67.0138 19.4385H67.15V16.9543H67.0138H66.8777V19.4385H67.0138ZM71.0711 19.4272L71.2069 19.4176L71.1503 18.6141L71.0145 18.6237L70.8787 18.6332L70.9353 19.4368L71.0711 19.4272ZM71.0145 18.6237H71.1507V17.8654H71.0145H70.8784V18.6237H71.0145ZM71.0145 17.8654H71.1507V17.8371H71.0145H70.8784V17.8654H71.0145ZM71.0145 17.8371L70.8784 17.8381L70.884 18.6133L71.0202 18.6123L71.1563 18.6113L71.1507 17.8361L71.0145 17.8371ZM71.0202 18.6123L70.8984 18.5515L70.8927 18.5628L71.0145 18.6237L71.1363 18.6845L71.142 18.6732L71.0202 18.6123ZM71.0145 18.6237L70.8928 18.5628C70.7791 18.79 70.5526 18.9945 70.2754 19.1431C69.999 19.2913 69.6871 19.3759 69.4187 19.3759V19.5121V19.6482C69.7389 19.6482 70.0947 19.549 70.4041 19.3831C70.7125 19.2177 70.9896 18.978 71.1363 18.6845L71.0145 18.6237ZM69.4187 19.5121V19.3759C68.862 19.3759 68.3382 19.0225 68.3382 18.403H68.2021H68.0659C68.0659 19.2208 68.7645 19.6482 69.4187 19.6482V19.5121ZM68.2021 18.403H68.3382C68.3382 17.9571 68.6525 17.531 69.1995 17.3312L69.1528 17.2033L69.106 17.0754C68.476 17.3056 68.0659 17.8189 68.0659 18.403H68.2021ZM69.1528 17.2033L69.1987 17.3314C69.7013 17.1512 70.5283 17.0395 71.0089 17.0395V16.9034V16.7672C70.5049 16.7672 69.6455 16.8819 69.1068 17.0751L69.1528 17.2033ZM71.0089 16.9034L70.8727 16.9055L70.8784 17.2677L71.0145 17.2655L71.1507 17.2634L71.145 16.9012L71.0089 16.9034ZM71.0145 17.2655V17.1294H71.0089V17.2655V17.4017H71.0145V17.2655ZM71.0089 17.2655H71.145V16.8751H71.0089H70.8727V17.2655H71.0089ZM71.0089 16.8751H71.145C71.145 16.7465 71.1424 16.4499 70.9782 16.1845C70.8065 15.9068 70.4775 15.692 69.8884 15.692V15.8282V15.9643C70.4028 15.9643 70.6341 16.1457 70.7467 16.3278C70.8669 16.5222 70.8727 16.749 70.8727 16.8751H71.0089ZM69.8884 15.8282V15.692C69.3796 15.692 69.0618 15.8502 68.8632 16.0756C68.6704 16.2943 68.6069 16.5592 68.5674 16.7314L68.7001 16.7619L68.8328 16.7924C68.8725 16.6194 68.9249 16.4174 69.0675 16.2556C69.2042 16.1005 69.4409 15.9643 69.8884 15.9643V15.8282ZM68.7001 16.7619V16.6257H68.2078V16.7619V16.8981H68.7001V16.7619ZM68.2078 16.7619L68.3422 16.7836C68.371 16.6053 68.4592 16.2853 68.6901 16.0123C68.9164 15.7448 69.2885 15.5116 69.9111 15.5116V15.3755V15.2393C69.2094 15.2393 68.761 15.507 68.4822 15.8365C68.2081 16.1605 68.1067 16.5337 68.0733 16.7402L68.2078 16.7619ZM69.9111 15.3755V15.5116C70.4363 15.5116 70.798 15.6741 71.0298 15.929C71.2636 16.1861 71.382 16.5555 71.382 16.9996H71.5182H71.6543C71.6543 16.5099 71.5237 16.0673 71.2313 15.7458C70.9368 15.4221 70.495 15.2393 69.9111 15.2393V15.3755ZM71.5182 16.9996H71.382V18.6237H71.5182H71.6543V16.9996H71.5182ZM71.5182 18.6237H71.382C71.382 18.6847 71.3818 18.748 71.3882 18.8033C71.3947 18.8594 71.4094 18.9234 71.4503 18.98C71.5364 19.0991 71.6888 19.122 71.8577 19.122V18.9858V18.8497C71.778 18.8497 71.7293 18.8431 71.6999 18.8344C71.686 18.8303 71.6787 18.8264 71.6753 18.8242C71.6723 18.8223 71.6714 18.8211 71.6709 18.8205C71.6694 18.8183 71.6628 18.8077 71.6587 18.772C71.6545 18.7356 71.6543 18.6899 71.6543 18.6237H71.5182ZM71.8577 18.9858L71.8548 19.1219L72.1208 19.1276L72.1237 18.9915L72.1266 18.8554L71.8606 18.8497L71.8577 18.9858ZM72.1237 18.9915H71.9875V19.4272H72.1237H72.2598V18.9915H72.1237ZM72.1237 19.4272V19.2911H71.0711V19.4272V19.5634H72.1237V19.4272ZM68.7227 18.4143H68.5866C68.5866 18.5725 68.625 18.7623 68.7584 18.9138C68.8949 19.0688 69.1107 19.1616 69.4187 19.1616V19.0254V18.8893C69.1665 18.8893 69.0344 18.8152 68.9628 18.7339C68.8883 18.6492 68.8589 18.5333 68.8589 18.4143H68.7227ZM69.4187 19.0254V19.1616C69.8447 19.1616 70.2564 18.9896 70.5688 18.751C70.8773 18.5153 71.1126 18.1957 71.1497 17.8814L71.0145 17.8654L70.8793 17.8494C70.8543 18.0613 70.682 18.3218 70.4035 18.5346C70.1288 18.7444 69.7737 18.8893 69.4187 18.8893V19.0254ZM71.0145 17.8654L71.1507 17.8641L71.145 17.2643L71.0089 17.2655L70.8727 17.2668L70.8784 17.8667L71.0145 17.8654ZM71.0089 17.2655L71.001 17.1296C70.8427 17.1387 70.5312 17.1903 70.2015 17.2612C69.8703 17.3324 69.5078 17.426 69.2469 17.5227L69.2942 17.6503L69.3416 17.778C69.5844 17.688 69.9321 17.5976 70.2587 17.5274C70.5868 17.4568 70.8808 17.4093 71.0167 17.4015L71.0089 17.2655ZM69.2942 17.6503L69.247 17.5227C68.9913 17.6174 68.8234 17.7648 68.7207 17.9311C68.6192 18.0955 68.5866 18.2701 68.5866 18.4143H68.7227H68.8589C68.8589 18.3095 68.8828 18.187 68.9524 18.0741C69.021 17.9631 69.1388 17.8531 69.3415 17.778L69.2942 17.6503ZM74.0453 15.466V15.6022H74.5546V15.466V15.3299H74.0453V15.466ZM74.5546 15.466H74.4184V17.5541H74.5546H74.6907V15.466H74.5546ZM74.5546 17.5541L74.6556 17.6454L76.54 15.5572L76.439 15.466L76.3379 15.3748L74.4535 17.4629L74.5546 17.5541ZM76.439 15.466V15.6022H77.0501V15.466V15.3299H76.439V15.466ZM77.0501 15.466L76.9493 15.3745L75.4837 16.9872L75.5845 17.0788L75.6852 17.1704L77.1509 15.5576L77.0501 15.466ZM75.5845 17.0788L75.4755 17.1604L77.2354 19.5089L77.3444 19.4272L77.4533 19.3456L75.6934 16.9971L75.5845 17.0788ZM77.3444 19.4272V19.2911H76.7672V19.4272V19.5634H77.3444V19.4272ZM76.7672 19.4272L76.8757 19.345L75.3704 17.3587L75.2619 17.441L75.1534 17.5232L76.6587 19.5094L76.7672 19.4272ZM75.2619 17.441L75.1613 17.3492L74.4596 18.1188L74.5602 18.2106L74.6608 18.3023L75.3625 17.5327L75.2619 17.441ZM74.5602 18.2106L74.6565 18.1143L74.6508 18.1086L74.5546 18.2049L74.4583 18.3012L74.464 18.3069L74.5602 18.2106ZM74.5546 18.2049H74.4184V19.4272H74.5546H74.6907V18.2049H74.5546ZM74.5546 19.4272V19.2911H74.0453V19.4272V19.5634H74.5546V19.4272ZM74.0453 19.4272H74.1814V15.466H74.0453H73.9091V19.4272H74.0453ZM79.5442 19.5178V19.3816C78.9696 19.3816 78.5153 19.1931 78.2042 18.8658C77.8923 18.5378 77.7111 18.0564 77.7111 17.4466H77.575H77.4388C77.4388 18.1101 77.6368 18.6642 78.0068 19.0535C78.3776 19.4435 78.9079 19.6539 79.5442 19.6539V19.5178ZM77.575 17.4466H77.7111C77.7111 16.8369 77.8923 16.3554 78.2042 16.0274C78.5153 15.7001 78.9696 15.5116 79.5442 15.5116V15.3755V15.2393C78.9079 15.2393 78.3776 15.4498 78.0068 15.8398C77.6368 16.229 77.4388 16.7831 77.4388 17.4466H77.575ZM79.5442 15.3755V15.5116C80.1189 15.5116 80.5732 15.7001 80.8843 16.0274C81.1962 16.3554 81.3774 16.8369 81.3774 17.4466H81.5135H81.6497C81.6497 16.7831 81.4517 16.229 81.0817 15.8398C80.7109 15.4498 80.1806 15.2393 79.5442 15.2393V15.3755ZM81.5135 17.4466H81.3774C81.3774 18.0564 81.1962 18.5378 80.8843 18.8658C80.5732 19.1931 80.1189 19.3816 79.5442 19.3816V19.5178V19.6539C80.1806 19.6539 80.7109 19.4435 81.0817 19.0535C81.4517 18.6642 81.6497 18.1101 81.6497 17.4466H81.5135ZM78.0729 17.4466H77.9368C77.9368 17.9698 78.0856 18.41 78.3683 18.7209C78.6523 19.0333 79.0588 19.2012 79.5442 19.2012V19.065V18.9289C79.1243 18.9289 78.7951 18.7855 78.5698 18.5377C78.3432 18.2884 78.2091 17.9194 78.2091 17.4466H78.0729ZM79.5442 19.065V19.2012C80.0297 19.2012 80.4361 19.0333 80.7202 18.7209C81.0028 18.41 81.1517 17.9698 81.1517 17.4466H81.0155H80.8794C80.8794 17.9194 80.7453 18.2884 80.5187 18.5377C80.2934 18.7855 79.9642 18.9289 79.5442 18.9289V19.065ZM81.0155 17.4466H81.1517C81.1517 16.9235 81.0028 16.4833 80.7202 16.1723C80.4361 15.8599 80.0297 15.692 79.5442 15.692V15.8282V15.9643C79.9642 15.9643 80.2934 16.1077 80.5187 16.3555C80.7453 16.6048 80.8794 16.9738 80.8794 17.4466H81.0155ZM79.5442 15.8282V15.692C79.0588 15.692 78.6523 15.8599 78.3683 16.1723C78.0856 16.4833 77.9368 16.9235 77.9368 17.4466H78.0729H78.2091C78.2091 16.9738 78.3432 16.6048 78.5698 16.3555C78.7951 16.1077 79.1243 15.9643 79.5442 15.9643V15.8282ZM85.5405 16.9543L85.6756 16.9368C85.6183 16.4936 85.4458 16.1757 85.1799 15.9714C84.917 15.7692 84.5806 15.692 84.2205 15.692V15.8282V15.9643C84.5452 15.9643 84.815 16.0343 85.014 16.1873C85.2101 16.338 85.3553 16.5832 85.4055 16.9718L85.5405 16.9543ZM84.2205 15.8282V15.692C83.749 15.692 83.3425 15.8455 83.0546 16.1515C82.7676 16.4568 82.6131 16.8981 82.6131 17.4466H82.7492H82.8854C82.8854 16.9482 83.0251 16.5804 83.253 16.3381C83.4801 16.0967 83.8092 15.9643 84.2205 15.9643V15.8282ZM82.7492 17.4466H82.6131C82.6131 18.0071 82.7736 18.4487 83.0625 18.751C83.3517 19.0537 83.755 19.2012 84.2092 19.2012V19.065V18.9289C83.8146 18.9289 83.4879 18.802 83.2593 18.5628C83.0304 18.3233 82.8854 17.9556 82.8854 17.4466H82.7492ZM84.2092 19.065V19.2012C84.6148 19.2012 84.9769 19.1251 85.2618 18.9367C85.5507 18.7458 85.7453 18.4493 85.8307 18.0404L85.6975 18.0125L85.5642 17.9847C85.4912 18.334 85.3321 18.5638 85.1117 18.7096C84.8873 18.8579 84.5845 18.9289 84.2092 18.9289V19.065ZM85.6975 18.0125V18.1487H86.1672V18.0125V17.8763H85.6975V18.0125ZM86.1672 18.0125L86.0357 17.9771C85.9059 18.4582 85.6824 18.8061 85.3823 19.0345C85.0821 19.263 84.6929 19.3816 84.2149 19.3816V19.5178V19.6539C84.7384 19.6539 85.1896 19.5235 85.5472 19.2512C85.905 18.9788 86.1567 18.574 86.2986 18.048L86.1672 18.0125ZM84.2149 19.5178V19.3816C83.597 19.3816 83.1458 19.1856 82.8477 18.8587C82.5479 18.5299 82.3874 18.0513 82.3874 17.4579H82.2512H82.1151C82.1151 18.0982 82.2885 18.6495 82.6465 19.0422C83.0062 19.4368 83.5368 19.6539 84.2149 19.6539V19.5178ZM82.2512 17.4579H82.3874C82.3874 16.7877 82.5929 16.3048 82.9127 15.9895C83.2333 15.6735 83.683 15.5116 84.1979 15.5116V15.3755V15.2393C83.6262 15.2393 83.1027 15.4199 82.7215 15.7956C82.3396 16.1721 82.1151 16.7305 82.1151 17.4579H82.2512ZM84.1979 15.3755V15.5116C84.6691 15.5116 85.0561 15.6478 85.3421 15.8933C85.6281 16.1388 85.8244 16.5033 85.8967 16.9804L86.0313 16.96L86.166 16.9395C86.0855 16.4094 85.863 15.9816 85.5195 15.6867C85.176 15.3918 84.7226 15.2393 84.1979 15.2393V15.3755ZM86.0313 16.96L86.0329 16.8238L85.5421 16.8182L85.5405 16.9543L85.539 17.0904L86.0298 17.0961L86.0313 16.96ZM87.0186 19.4272H87.1547V15.466H87.0186H86.8824V19.4272H87.0186ZM87.0186 15.466V15.6022H87.5279V15.466V15.3299H87.0186V15.466ZM87.5279 15.466H87.3917V16.9543H87.5279H87.664V15.466H87.5279ZM87.5279 16.9543V17.0905H88.8181V16.9543V16.8181H87.5279V16.9543ZM88.8181 16.9543V17.0905C89.3312 17.0905 89.6318 17.2803 89.8073 17.5004C89.9877 17.7266 90.0457 17.9977 90.0457 18.1653H90.1819H90.318C90.318 17.9481 90.2459 17.6137 90.0202 17.3306C89.7897 17.0414 89.4084 16.8181 88.8181 16.8181V16.9543ZM90.1819 18.1653H90.0457C90.0457 18.3303 90.0003 18.6118 89.8272 18.8489C89.6595 19.0786 89.3606 19.2828 88.8174 19.2854L88.8181 19.4216L88.8187 19.5577C89.4412 19.5547 89.8243 19.3146 90.0471 19.0095C90.2644 18.7119 90.318 18.3681 90.318 18.1653H90.1819ZM88.8181 19.4216L88.8175 19.2854L87.5273 19.2911L87.5279 19.4272L87.5285 19.5634L88.8187 19.5577L88.8181 19.4216ZM87.5279 19.4272V19.2911H87.0186V19.4272V19.5634H87.5279V19.4272ZM87.5279 18.9802L87.5294 19.1163C88.0434 19.1107 88.801 19.1107 88.8181 19.1107V18.9745V18.8384C88.8012 18.8384 88.0422 18.8383 87.5264 18.844L87.5279 18.9802ZM88.8181 18.9745L88.8204 19.1106C89.1815 19.1045 89.4454 18.9932 89.6181 18.8076C89.7891 18.6238 89.854 18.3847 89.854 18.154H89.7178H89.5817C89.5817 18.3363 89.5306 18.5019 89.4187 18.6222C89.3084 18.7408 89.1224 18.8332 88.8158 18.8384L88.8181 18.9745ZM89.7178 18.154H89.854C89.854 17.7129 89.5007 17.2595 88.8181 17.2595V17.3957V17.5318C89.3578 17.5318 89.5817 17.8707 89.5817 18.154H89.7178ZM88.8181 17.3957V17.2595C88.5326 17.2595 87.8188 17.2765 87.5332 17.2653L87.5279 17.4013L87.5225 17.5374C87.8141 17.5488 88.549 17.5318 88.8181 17.5318V17.3957ZM87.5279 17.4013H87.3917V18.9802H87.5279H87.664V17.4013H87.5279ZM90.6912 19.4272H90.8273V15.466H90.6912H90.555V19.4272H90.6912ZM90.6912 15.466V15.6022H91.2005V15.466V15.3299H90.6912V15.466ZM91.2005 15.466H91.0643V19.4272H91.2005H91.3366V15.466H91.2005ZM91.2005 19.4272V19.2911H90.6912V19.4272V19.5634H91.2005V19.4272ZM92.1646 15.466V15.6022H95.0053V15.466V15.3299H92.1646V15.466ZM95.0053 15.466H94.8692V15.9357H95.0053H95.1415V15.466H95.0053ZM95.0053 15.9357V15.7996H92.6739V15.9357V16.0719H95.0053V15.9357ZM92.6739 15.9357H92.5377V19.4272H92.6739H92.81V15.9357H92.6739ZM92.6739 19.4272V19.2911H92.1646V19.4272V19.5634H92.6739V19.4272ZM92.1646 19.4272H92.3007V15.466H92.1646H92.0284V19.4272H92.1646ZM97.1643 19.5178V19.3816C96.6259 19.3816 96.2693 19.2021 96.0437 18.9223C95.8141 18.6375 95.7047 18.2295 95.7047 17.7465H95.5685H95.4323C95.4323 18.2651 95.5492 18.7428 95.8317 19.0932C96.1183 19.4486 96.5596 19.6539 97.1643 19.6539V19.5178ZM95.5685 17.7465H95.7047V15.4717H95.5685H95.4323V17.7465H95.5685ZM95.5685 15.4717V15.6078H96.0665V15.4717V15.3355H95.5685V15.4717ZM96.0665 15.4717H95.9303V17.6107H96.0665H96.2026V15.4717H96.0665ZM96.0665 17.6107H95.9303C95.9303 18.1583 96.0448 18.5599 96.273 18.8255C96.5048 19.0954 96.8329 19.2012 97.2039 19.2012V19.065V18.9289C96.8845 18.9289 96.6439 18.8395 96.4796 18.6481C96.3116 18.4526 96.2026 18.127 96.2026 17.6107H96.0665ZM97.2039 19.065V19.2012C97.7639 19.2012 98.155 18.9611 98.4016 18.605C98.6436 18.2555 98.7405 17.8041 98.7434 17.3797L98.6073 17.3787L98.4711 17.3778C98.4684 17.7682 98.3786 18.1599 98.1777 18.4499C97.9816 18.7333 97.6738 18.9289 97.2039 18.9289V19.065ZM98.6073 17.3787L98.7434 17.3799L98.7604 15.4672L98.6243 15.466L98.4881 15.4648L98.4711 17.3775L98.6073 17.3787ZM98.6243 15.466V15.6022H99.1109V15.466V15.3299H98.6243V15.466ZM99.1109 15.466H98.9748V19.4272H99.1109H99.2471V15.466H99.1109ZM99.1109 19.4272V19.2911H98.6808V19.4272V19.5634H99.1109V19.4272ZM98.6808 19.4272L98.8169 19.4221L98.783 18.5111L98.6469 18.5161L98.5108 18.5212L98.5448 19.4323L98.6808 19.4272ZM98.6469 18.5161V18.38H98.6299V18.5161V18.6523H98.6469V18.5161ZM98.6299 18.5161L98.4946 18.5008C98.4838 18.5958 98.4135 18.8171 98.2151 19.0136C98.0211 19.2057 97.697 19.3816 97.1643 19.3816V19.5178V19.6539C97.7633 19.6539 98.1579 19.4534 98.4067 19.2071C98.6511 18.965 98.7477 18.6855 98.7652 18.5315L98.6299 18.5161ZM100.075 15.466V15.6022H100.584V15.466V15.3299H100.075V15.466ZM100.584 15.466H100.448V17.1524H100.584H100.72V15.466H100.584ZM100.584 17.1524V17.2885H102.802V17.1524V17.0162H100.584V17.1524ZM102.802 17.1524H102.938V15.466H102.802H102.666V17.1524H102.802ZM102.802 15.466V15.6022H103.312V15.466V15.3299H102.802V15.466ZM103.312 15.466H103.175V19.4272H103.312H103.448V15.466H103.312ZM103.312 19.4272V19.2911H102.802V19.4272V19.5634H103.312V19.4272ZM102.802 19.4272H102.938V17.622H102.802H102.666V19.4272H102.802ZM102.802 17.622V17.4859H100.584V17.622V17.7582H102.802V17.622ZM100.584 17.622H100.448V19.4272H100.584H100.72V17.622H100.584ZM100.584 19.4272V19.2911H100.075V19.4272V19.5634H100.584V19.4272ZM100.075 19.4272H100.211V15.466H100.075H99.9386V19.4272H100.075ZM106.918 19.4272L107.054 19.4176L106.998 18.6141L106.862 18.6237L106.726 18.6332L106.783 19.4368L106.918 19.4272ZM106.862 18.6237H106.998V17.8654H106.862H106.726V18.6237H106.862ZM106.862 17.8654H106.998V17.8371H106.862H106.726V17.8654H106.862ZM106.862 17.8371L106.726 17.8381L106.731 18.6133L106.868 18.6123L107.004 18.6113L106.998 17.8361L106.862 17.8371ZM106.868 18.6123L106.746 18.5515L106.74 18.5628L106.862 18.6237L106.984 18.6845L106.989 18.6732L106.868 18.6123ZM106.862 18.6237L106.74 18.5628C106.626 18.79 106.4 18.9945 106.123 19.1431C105.846 19.2913 105.534 19.3759 105.266 19.3759V19.5121V19.6482C105.586 19.6482 105.942 19.549 106.251 19.3831C106.56 19.2177 106.837 18.978 106.984 18.6845L106.862 18.6237ZM105.266 19.5121V19.3759C104.709 19.3759 104.186 19.0225 104.186 18.403H104.049H103.913C103.913 19.2208 104.612 19.6482 105.266 19.6482V19.5121ZM104.049 18.403H104.186C104.186 17.9571 104.5 17.531 105.047 17.3312L105 17.2033L104.953 17.0754C104.323 17.3056 103.913 17.8189 103.913 18.403H104.049ZM105 17.2033L105.046 17.3314C105.549 17.1512 106.376 17.0395 106.856 17.0395V16.9034V16.7672C106.352 16.7672 105.493 16.8819 104.954 17.0751L105 17.2033ZM106.856 16.9034L106.72 16.9055L106.726 17.2677L106.862 17.2655L106.998 17.2634L106.992 16.9012L106.856 16.9034ZM106.862 17.2655V17.1294H106.856V17.2655V17.4017H106.862V17.2655ZM106.856 17.2655H106.992V16.8751H106.856H106.72V17.2655H106.856ZM106.856 16.8751H106.992C106.992 16.7465 106.99 16.4499 106.826 16.1845C106.654 15.9068 106.325 15.692 105.736 15.692V15.8282V15.9643C106.25 15.9643 106.481 16.1457 106.594 16.3278C106.714 16.5222 106.72 16.749 106.72 16.8751H106.856ZM105.736 15.8282V15.692C105.227 15.692 104.909 15.8502 104.711 16.0756C104.518 16.2943 104.454 16.5592 104.415 16.7314L104.547 16.7619L104.68 16.7924C104.72 16.6194 104.772 16.4174 104.915 16.2556C105.052 16.1005 105.288 15.9643 105.736 15.9643V15.8282ZM104.547 16.7619V16.6257H104.055V16.7619V16.8981H104.547V16.7619ZM104.055 16.7619L104.19 16.7836C104.218 16.6053 104.307 16.2853 104.537 16.0123C104.764 15.7448 105.136 15.5116 105.758 15.5116V15.3755V15.2393C105.057 15.2393 104.608 15.507 104.33 15.8365C104.055 16.1605 103.954 16.5337 103.921 16.7402L104.055 16.7619ZM105.758 15.3755V15.5116C106.284 15.5116 106.645 15.6741 106.877 15.929C107.111 16.1861 107.229 16.5555 107.229 16.9996H107.366H107.502C107.502 16.5099 107.371 16.0673 107.079 15.7458C106.784 15.4221 106.342 15.2393 105.758 15.2393V15.3755ZM107.366 16.9996H107.229V18.6237H107.366H107.502V16.9996H107.366ZM107.366 18.6237H107.229C107.229 18.6847 107.229 18.748 107.236 18.8033C107.242 18.8594 107.257 18.9234 107.298 18.98C107.384 19.0991 107.536 19.122 107.705 19.122V18.9858V18.8497C107.625 18.8497 107.577 18.8431 107.547 18.8344C107.533 18.8303 107.526 18.8264 107.523 18.8242C107.52 18.8223 107.519 18.8211 107.518 18.8205C107.517 18.8183 107.51 18.8077 107.506 18.772C107.502 18.7356 107.502 18.6899 107.502 18.6237H107.366ZM107.705 18.9858L107.702 19.1219L107.968 19.1276L107.971 18.9915L107.974 18.8554L107.708 18.8497L107.705 18.9858ZM107.971 18.9915H107.835V19.4272H107.971H108.107V18.9915H107.971ZM107.971 19.4272V19.2911H106.918V19.4272V19.5634H107.971V19.4272ZM104.57 18.4143H104.434C104.434 18.5725 104.472 18.7623 104.606 18.9138C104.742 19.0688 104.958 19.1616 105.266 19.1616V19.0254V18.8893C105.014 18.8893 104.882 18.8152 104.81 18.7339C104.736 18.6492 104.706 18.5333 104.706 18.4143H104.57ZM105.266 19.0254V19.1616C105.692 19.1616 106.104 18.9896 106.416 18.751C106.725 18.5153 106.96 18.1957 106.997 17.8814L106.862 17.8654L106.727 17.8494C106.702 18.0613 106.529 18.3218 106.251 18.5346C105.976 18.7444 105.621 18.8893 105.266 18.8893V19.0254ZM106.862 17.8654L106.998 17.8641L106.992 17.2643L106.856 17.2655L106.72 17.2668L106.726 17.8667L106.862 17.8654ZM106.856 17.2655L106.848 17.1296C106.69 17.1387 106.379 17.1903 106.049 17.2612C105.718 17.3324 105.355 17.426 105.094 17.5227L105.142 17.6503L105.189 17.778C105.432 17.688 105.779 17.5976 106.106 17.5274C106.434 17.4568 106.728 17.4093 106.864 17.4015L106.856 17.2655ZM105.142 17.6503L105.094 17.5227C104.839 17.6174 104.671 17.7648 104.568 17.9311C104.467 18.0955 104.434 18.2701 104.434 18.4143H104.57H104.706C104.706 18.3095 104.73 18.187 104.8 18.0741C104.868 17.9631 104.986 17.8531 105.189 17.778L105.142 17.6503Z" fill="white" mask="url(#path-2-outside-1_61_2201)"/>
<mask id="mask0_61_2201" style="mask-type:alpha" maskUnits="userSpaceOnUse" x="16" y="1" width="92" height="12">
<rect x="16.3461" y="1.34586" width="91.5623" height="11.4959" fill="#D9D9D9" stroke="#CC1D23" stroke-width="0.182928"/>
</mask>
<g mask="url(#mask0_61_2201)">
<mask id="path-5-outside-2_61_2201" maskUnits="userSpaceOnUse" x="15.5585" y="0.636963" width="93" height="13" fill="black">
<rect fill="white" x="15.5585" y="0.636963" width="93" height="13"/>
<path d="M24.4801 5.44805C24.2215 3.44723 22.942 2.72584 21.2951 2.72584C19.1718 2.72584 17.7562 4.10056 17.7562 6.6186C17.7562 9.19108 19.2262 10.5114 21.2679 10.5114C23.1462 10.5114 24.4665 9.80358 24.8476 7.9797H25.9773C25.324 10.4025 23.6906 11.6002 21.2815 11.6002C18.1646 11.6002 16.5585 9.61302 16.5585 6.64582C16.5585 3.2839 18.6273 1.63696 21.2407 1.63696C23.6362 1.63696 25.2831 3.02529 25.6506 5.44805H24.4801Z"/>
<path d="M39.3768 5.43444C39.3768 3.59695 38.6963 2.82112 37.2263 2.82112C35.3888 2.82112 34.7219 4.0325 34.7219 5.82916V11.3688H33.4969V6.03332C33.4969 3.85556 32.9116 2.78029 31.2102 2.78029C28.5697 2.78029 28.5697 5.39361 28.5697 5.89721V11.3825H27.3447V1.85474H28.3655L28.5697 3.73306C28.6922 3.05251 29.6177 1.63696 31.6049 1.63696C32.9933 1.63696 33.9188 2.34474 34.2999 3.46084C34.681 2.68501 35.6882 1.6778 37.4713 1.6778C39.4313 1.6778 40.6018 2.88918 40.6018 5.18944V11.4097H39.3768V5.43444Z"/>
<path d="M48.4552 1.85474H49.7074L46.1957 10.0758C45.4471 11.8452 43.6641 11.6138 42.8338 11.6138V10.4705C43.9771 10.4705 44.7394 10.5658 45.2838 9.28636L45.5424 8.67386L41.4183 1.85474H42.7658L46.0869 7.39443L48.4552 1.85474Z"/>
<path d="M52.0237 1.85474H58.1487V10.2255H59.9453V11.3825L59.8092 13.2931H58.6523L58.7884 11.3825H49.8868L50.0229 13.2931H48.8659L48.7298 11.3825V10.2255H49.7234C50.6218 10.2255 51.3295 9.84441 51.5065 7.78915L52.0237 1.85474ZM51.9965 10.2255H56.9237V2.98445H53.0854L52.5817 8.48331C52.4456 9.24553 52.2415 9.80358 51.9965 10.2255Z"/>
<path d="M68.1421 5.44805C67.8835 3.44723 66.6041 2.72584 64.9571 2.72584C62.8338 2.72584 61.4183 4.10056 61.4183 6.6186C61.4183 9.19108 62.8883 10.5114 64.9299 10.5114C66.8082 10.5114 68.1285 9.80358 68.5096 7.9797H69.6393C68.986 10.4025 67.3527 11.6002 64.9435 11.6002C61.8266 11.6002 60.2205 9.61302 60.2205 6.64582C60.2205 3.2839 62.2894 1.63696 64.9027 1.63696C67.2982 1.63696 68.9452 3.02529 69.3127 5.44805H68.1421Z"/>
<path d="M75.4711 11.6002C72.5584 11.6002 70.7345 9.68108 70.7345 6.6186C70.7345 3.55612 72.5584 1.63696 75.4711 1.63696C78.3839 1.63696 80.2078 3.55612 80.2078 6.6186C80.2078 9.68108 78.3839 11.6002 75.4711 11.6002ZM71.9323 6.6186C71.9323 9.01414 73.2934 10.5114 75.4711 10.5114C77.6489 10.5114 79.01 9.01414 79.01 6.6186C79.01 4.22306 77.6489 2.72584 75.4711 2.72584C73.2934 2.72584 71.9323 4.22306 71.9323 6.6186Z"/>
<path d="M81.5739 1.85474H82.7989L85.5755 1.86835C88.4474 1.88196 88.9102 3.2839 88.9102 4.22306C88.9102 5.50249 87.9574 6.18304 87.1816 6.3736C88.2841 6.44165 89.3594 7.20387 89.3594 8.76914C89.3594 10.103 88.5699 11.3552 85.9974 11.3688L82.7989 11.3825H81.5739V1.85474ZM82.7989 10.3208C84.0783 10.3072 85.7116 10.3072 86.0927 10.2936C87.0727 10.2664 88.2297 9.96691 88.2297 8.68747C88.2297 7.54415 87.2905 6.78193 85.9566 6.78193C84.7725 6.78193 83.3841 6.79554 82.7989 6.78193V10.3208ZM82.7989 5.89721C83.4386 5.8836 84.9086 5.92444 85.4394 5.92444C87.0455 5.92444 87.7941 5.25749 87.7941 4.35917C87.7941 3.35195 86.8413 2.98445 85.9566 2.95723C85.6027 2.94362 83.9422 2.94362 82.7989 2.93001V5.89721Z"/>
<path d="M91.6443 6.79554C91.7124 9.00053 93.019 10.5114 95.1832 10.5114C96.6668 10.5114 98.1232 10.3072 98.6948 8.31998H99.7837C99.0896 10.7155 97.1296 11.6002 95.1832 11.6002C92.4065 11.6002 90.4466 9.68108 90.4466 6.6186C90.4466 3.55612 92.4065 1.63696 95.1832 1.63696C98.1504 1.63696 99.8926 3.50167 99.7837 6.79554H91.6443ZM91.7124 5.70666H98.5723C98.409 4.08695 97.4562 2.72584 95.1832 2.72584C93.2777 2.72584 92.0254 3.91 91.7124 5.70666Z"/>
<path d="M107.7 1.85474V2.98445H104.419V11.3825H103.194V2.98445H99.9142V1.85474H107.7Z"/>
</mask>
<path d="M24.4801 5.44805C24.2215 3.44723 22.942 2.72584 21.2951 2.72584C19.1718 2.72584 17.7562 4.10056 17.7562 6.6186C17.7562 9.19108 19.2262 10.5114 21.2679 10.5114C23.1462 10.5114 24.4665 9.80358 24.8476 7.9797H25.9773C25.324 10.4025 23.6906 11.6002 21.2815 11.6002C18.1646 11.6002 16.5585 9.61302 16.5585 6.64582C16.5585 3.2839 18.6273 1.63696 21.2407 1.63696C23.6362 1.63696 25.2831 3.02529 25.6506 5.44805H24.4801Z" fill="white"/>
<path d="M39.3768 5.43444C39.3768 3.59695 38.6963 2.82112 37.2263 2.82112C35.3888 2.82112 34.7219 4.0325 34.7219 5.82916V11.3688H33.4969V6.03332C33.4969 3.85556 32.9116 2.78029 31.2102 2.78029C28.5697 2.78029 28.5697 5.39361 28.5697 5.89721V11.3825H27.3447V1.85474H28.3655L28.5697 3.73306C28.6922 3.05251 29.6177 1.63696 31.6049 1.63696C32.9933 1.63696 33.9188 2.34474 34.2999 3.46084C34.681 2.68501 35.6882 1.6778 37.4713 1.6778C39.4313 1.6778 40.6018 2.88918 40.6018 5.18944V11.4097H39.3768V5.43444Z" fill="white"/>
<path d="M48.4552 1.85474H49.7074L46.1957 10.0758C45.4471 11.8452 43.6641 11.6138 42.8338 11.6138V10.4705C43.9771 10.4705 44.7394 10.5658 45.2838 9.28636L45.5424 8.67386L41.4183 1.85474H42.7658L46.0869 7.39443L48.4552 1.85474Z" fill="white"/>
<path d="M52.0237 1.85474H58.1487V10.2255H59.9453V11.3825L59.8092 13.2931H58.6523L58.7884 11.3825H49.8868L50.0229 13.2931H48.8659L48.7298 11.3825V10.2255H49.7234C50.6218 10.2255 51.3295 9.84441 51.5065 7.78915L52.0237 1.85474ZM51.9965 10.2255H56.9237V2.98445H53.0854L52.5817 8.48331C52.4456 9.24553 52.2415 9.80358 51.9965 10.2255Z" fill="white"/>
<path d="M68.1421 5.44805C67.8835 3.44723 66.6041 2.72584 64.9571 2.72584C62.8338 2.72584 61.4183 4.10056 61.4183 6.6186C61.4183 9.19108 62.8883 10.5114 64.9299 10.5114C66.8082 10.5114 68.1285 9.80358 68.5096 7.9797H69.6393C68.986 10.4025 67.3527 11.6002 64.9435 11.6002C61.8266 11.6002 60.2205 9.61302 60.2205 6.64582C60.2205 3.2839 62.2894 1.63696 64.9027 1.63696C67.2982 1.63696 68.9452 3.02529 69.3127 5.44805H68.1421Z" fill="white"/>
<path d="M75.4711 11.6002C72.5584 11.6002 70.7345 9.68108 70.7345 6.6186C70.7345 3.55612 72.5584 1.63696 75.4711 1.63696C78.3839 1.63696 80.2078 3.55612 80.2078 6.6186C80.2078 9.68108 78.3839 11.6002 75.4711 11.6002ZM71.9323 6.6186C71.9323 9.01414 73.2934 10.5114 75.4711 10.5114C77.6489 10.5114 79.01 9.01414 79.01 6.6186C79.01 4.22306 77.6489 2.72584 75.4711 2.72584C73.2934 2.72584 71.9323 4.22306 71.9323 6.6186Z" fill="white"/>
<path d="M81.5739 1.85474H82.7989L85.5755 1.86835C88.4474 1.88196 88.9102 3.2839 88.9102 4.22306C88.9102 5.50249 87.9574 6.18304 87.1816 6.3736C88.2841 6.44165 89.3594 7.20387 89.3594 8.76914C89.3594 10.103 88.5699 11.3552 85.9974 11.3688L82.7989 11.3825H81.5739V1.85474ZM82.7989 10.3208C84.0783 10.3072 85.7116 10.3072 86.0927 10.2936C87.0727 10.2664 88.2297 9.96691 88.2297 8.68747C88.2297 7.54415 87.2905 6.78193 85.9566 6.78193C84.7725 6.78193 83.3841 6.79554 82.7989 6.78193V10.3208ZM82.7989 5.89721C83.4386 5.8836 84.9086 5.92444 85.4394 5.92444C87.0455 5.92444 87.7941 5.25749 87.7941 4.35917C87.7941 3.35195 86.8413 2.98445 85.9566 2.95723C85.6027 2.94362 83.9422 2.94362 82.7989 2.93001V5.89721Z" fill="white"/>
<path d="M91.6443 6.79554C91.7124 9.00053 93.019 10.5114 95.1832 10.5114C96.6668 10.5114 98.1232 10.3072 98.6948 8.31998H99.7837C99.0896 10.7155 97.1296 11.6002 95.1832 11.6002C92.4065 11.6002 90.4466 9.68108 90.4466 6.6186C90.4466 3.55612 92.4065 1.63696 95.1832 1.63696C98.1504 1.63696 99.8926 3.50167 99.7837 6.79554H91.6443ZM91.7124 5.70666H98.5723C98.409 4.08695 97.4562 2.72584 95.1832 2.72584C93.2777 2.72584 92.0254 3.91 91.7124 5.70666Z" fill="white"/>
<path d="M107.7 1.85474V2.98445H104.419V11.3825H103.194V2.98445H99.9142V1.85474H107.7Z" fill="white"/>
<path d="M24.4801 5.44805C24.2215 3.44723 22.942 2.72584 21.2951 2.72584C19.1718 2.72584 17.7562 4.10056 17.7562 6.6186C17.7562 9.19108 19.2262 10.5114 21.2679 10.5114C23.1462 10.5114 24.4665 9.80358 24.8476 7.9797H25.9773C25.324 10.4025 23.6906 11.6002 21.2815 11.6002C18.1646 11.6002 16.5585 9.61302 16.5585 6.64582C16.5585 3.2839 18.6273 1.63696 21.2407 1.63696C23.6362 1.63696 25.2831 3.02529 25.6506 5.44805H24.4801Z" stroke="white" stroke-width="0.544611" mask="url(#path-5-outside-2_61_2201)"/>
<path d="M39.3768 5.43444C39.3768 3.59695 38.6963 2.82112 37.2263 2.82112C35.3888 2.82112 34.7219 4.0325 34.7219 5.82916V11.3688H33.4969V6.03332C33.4969 3.85556 32.9116 2.78029 31.2102 2.78029C28.5697 2.78029 28.5697 5.39361 28.5697 5.89721V11.3825H27.3447V1.85474H28.3655L28.5697 3.73306C28.6922 3.05251 29.6177 1.63696 31.6049 1.63696C32.9933 1.63696 33.9188 2.34474 34.2999 3.46084C34.681 2.68501 35.6882 1.6778 37.4713 1.6778C39.4313 1.6778 40.6018 2.88918 40.6018 5.18944V11.4097H39.3768V5.43444Z" stroke="white" stroke-width="0.544611" mask="url(#path-5-outside-2_61_2201)"/>
<path d="M48.4552 1.85474H49.7074L46.1957 10.0758C45.4471 11.8452 43.6641 11.6138 42.8338 11.6138V10.4705C43.9771 10.4705 44.7394 10.5658 45.2838 9.28636L45.5424 8.67386L41.4183 1.85474H42.7658L46.0869 7.39443L48.4552 1.85474Z" stroke="white" stroke-width="0.544611" mask="url(#path-5-outside-2_61_2201)"/>
<path d="M52.0237 1.85474H58.1487V10.2255H59.9453V11.3825L59.8092 13.2931H58.6523L58.7884 11.3825H49.8868L50.0229 13.2931H48.8659L48.7298 11.3825V10.2255H49.7234C50.6218 10.2255 51.3295 9.84441 51.5065 7.78915L52.0237 1.85474ZM51.9965 10.2255H56.9237V2.98445H53.0854L52.5817 8.48331C52.4456 9.24553 52.2415 9.80358 51.9965 10.2255Z" stroke="white" stroke-width="0.544611" mask="url(#path-5-outside-2_61_2201)"/>
<path d="M68.1421 5.44805C67.8835 3.44723 66.6041 2.72584 64.9571 2.72584C62.8338 2.72584 61.4183 4.10056 61.4183 6.6186C61.4183 9.19108 62.8883 10.5114 64.9299 10.5114C66.8082 10.5114 68.1285 9.80358 68.5096 7.9797H69.6393C68.986 10.4025 67.3527 11.6002 64.9435 11.6002C61.8266 11.6002 60.2205 9.61302 60.2205 6.64582C60.2205 3.2839 62.2894 1.63696 64.9027 1.63696C67.2982 1.63696 68.9452 3.02529 69.3127 5.44805H68.1421Z" stroke="white" stroke-width="0.544611" mask="url(#path-5-outside-2_61_2201)"/>
<path d="M75.4711 11.6002C72.5584 11.6002 70.7345 9.68108 70.7345 6.6186C70.7345 3.55612 72.5584 1.63696 75.4711 1.63696C78.3839 1.63696 80.2078 3.55612 80.2078 6.6186C80.2078 9.68108 78.3839 11.6002 75.4711 11.6002ZM71.9323 6.6186C71.9323 9.01414 73.2934 10.5114 75.4711 10.5114C77.6489 10.5114 79.01 9.01414 79.01 6.6186C79.01 4.22306 77.6489 2.72584 75.4711 2.72584C73.2934 2.72584 71.9323 4.22306 71.9323 6.6186Z" stroke="white" stroke-width="0.544611" mask="url(#path-5-outside-2_61_2201)"/>
<path d="M81.5739 1.85474H82.7989L85.5755 1.86835C88.4474 1.88196 88.9102 3.2839 88.9102 4.22306C88.9102 5.50249 87.9574 6.18304 87.1816 6.3736C88.2841 6.44165 89.3594 7.20387 89.3594 8.76914C89.3594 10.103 88.5699 11.3552 85.9974 11.3688L82.7989 11.3825H81.5739V1.85474ZM82.7989 10.3208C84.0783 10.3072 85.7116 10.3072 86.0927 10.2936C87.0727 10.2664 88.2297 9.96691 88.2297 8.68747C88.2297 7.54415 87.2905 6.78193 85.9566 6.78193C84.7725 6.78193 83.3841 6.79554 82.7989 6.78193V10.3208ZM82.7989 5.89721C83.4386 5.8836 84.9086 5.92444 85.4394 5.92444C87.0455 5.92444 87.7941 5.25749 87.7941 4.35917C87.7941 3.35195 86.8413 2.98445 85.9566 2.95723C85.6027 2.94362 83.9422 2.94362 82.7989 2.93001V5.89721Z" stroke="white" stroke-width="0.544611" mask="url(#path-5-outside-2_61_2201)"/>
<path d="M91.6443 6.79554C91.7124 9.00053 93.019 10.5114 95.1832 10.5114C96.6668 10.5114 98.1232 10.3072 98.6948 8.31998H99.7837C99.0896 10.7155 97.1296 11.6002 95.1832 11.6002C92.4065 11.6002 90.4466 9.68108 90.4466 6.6186C90.4466 3.55612 92.4065 1.63696 95.1832 1.63696C98.1504 1.63696 99.8926 3.50167 99.7837 6.79554H91.6443ZM91.7124 5.70666H98.5723C98.409 4.08695 97.4562 2.72584 95.1832 2.72584C93.2777 2.72584 92.0254 3.91 91.7124 5.70666Z" stroke="white" stroke-width="0.544611" mask="url(#path-5-outside-2_61_2201)"/>
<path d="M107.7 1.85474V2.98445H104.419V11.3825H103.194V2.98445H99.9142V1.85474H107.7Z" stroke="white" stroke-width="0.544611" mask="url(#path-5-outside-2_61_2201)"/>
</g>
</svg>
